<svg xmlns="http://www.w3.org/2000/svg" width="57" height="124" viewBox="0 0 57 124" fill="none">
<path d="M16.6111 110.765C16.1335 109.383 16.6885 107.187 15.319 99.475C13.9494 91.7631 10.9273 79.3753 10.656 71.3936C10.656 71.3936 7.45275 76.6124 6.34186 77.9037C5.24349 79.1958 1.56266 82.6702 2.93144 93.4043C4.30103 104.138 7.91777 103.596 6.66456 106.348C5.41121 109.1 -1.3961 111.218 0.257317 113.982C1.91074 116.747 5.25634 116.527 8.35673 115.429C11.4571 114.344 17.0886 112.148 16.6112 110.766L16.6111 110.765Z" fill="#081837"/>
<path d="M56.9921 82.9927C57.2633 78.2523 50.8435 71.2125 50.8435 68.3183C50.8435 65.4251 46.4382 53.2313 48.6476 49.11C50.8561 44.976 53.0005 25.432 52.0707 19.6584C51.1409 13.871 51.4247 0.940945 48.1178 0.38596C45.6372 -0.027626 44.7722 -0.53131 43.5963 1.36809C42.6916 2.82778 42.2789 4.54599 42.3177 6.26354C42.3564 7.82684 42.3564 9.97036 42.2528 11.6625C42.0591 14.6854 42.4591 21.0281 42.2528 25.9747C42.0464 30.935 38.7522 32.0198 38.7522 32.0198L38.5585 29.5266C38.5585 29.5266 40.5867 22.0605 38.9333 17.0615C37.4222 12.5012 37.1123 11.6489 37.1123 11.6489C37.1123 11.6489 36.1437 4.90653 33.0558 3.317C29.9688 1.74108 28.5605 9.53071 28.5605 9.53071C28.5605 9.53071 24.0526 8.16113 18.059 11.1841C18.059 11.1841 15.5145 4.13172 12.5564 4.13172C9.59832 4.13172 7.91883 8.05836 8.47474 11.9077C9.04329 15.7571 9.85695 17.9664 9.85695 17.9664C9.85695 17.9664 8.47474 22.3717 9.40463 25.0451C11.1094 29.9406 11.9491 33.041 13.6025 36.5416C15.256 40.0422 14.7135 48.6841 12.5564 52.8694C10.3993 57.0548 13.0087 69.0548 13.2151 73.6536C13.4215 78.2524 18.3691 103.027 19.4673 109.912C20.5655 116.798 17.4003 116.513 16.638 118.993C15.8757 121.473 16.6253 123.669 19.6996 123.953C22.7739 124.224 27.1917 122.028 27.3206 117.623C27.4495 113.218 27.3206 91.7495 27.3206 91.7495L27.9144 81.2866C27.9144 81.2866 29.3867 91.1945 29.3867 93.4029C29.3867 95.5987 29.8516 113.166 29.8516 113.166C29.8516 113.166 32.5124 112.947 34.7992 113.774C37.0852 114.601 48.3751 117.908 49.2023 113.503C50.0294 109.097 44.2547 106.889 44.2547 106.889C44.2547 106.889 53.3354 102.484 55.5447 96.426C57.7153 90.407 56.7206 87.7326 56.9918 82.9924L56.9921 82.9927ZM20.0485 16.2884C19.3123 16.4695 17.2966 16.6632 16.6515 16.2884C16.6515 16.2884 17.1164 14.0538 18.7572 13.7051C20.4106 13.3564 21.883 14.5449 21.883 14.5449C21.883 14.5449 20.7846 16.0947 20.0484 16.2884L20.0485 16.2884ZM26.0161 14.9062L24.0013 14.1826V14.079C24.6474 13.1618 24.9186 13.0717 25.926 13.0717C26.9333 13.0717 27.1144 14.079 27.1144 14.079L26.0161 14.9062ZM31.261 14.88C31.4673 14.7251 31.6097 14.4025 31.6097 14.0403C31.6097 13.5105 31.3258 13.0717 30.9636 13.0717C30.6149 13.0717 30.3176 13.4979 30.3176 14.0403C30.3176 14.3764 30.4338 14.6602 30.6149 14.8278C30.2662 14.7891 29.995 14.7503 29.8662 14.7242C29.4012 14.6341 28.6777 13.342 28.6777 13.342C28.6777 13.342 29.595 12.2436 31.016 12.5148C32.437 12.786 33.3542 14.7107 33.3542 14.7107C32.992 14.9323 32.0748 14.9323 31.2611 14.8801L31.261 14.88Z" fill="#081837"/>
<path d="M18.625 15.0602C18.625 15.59 18.9088 16.0288 19.2711 16.0288C19.6198 16.0288 19.9171 15.6026 19.9171 15.0602C19.9171 14.5177 19.6333 14.0916 19.2711 14.0916C18.9097 14.0916 18.625 14.5304 18.625 15.0602Z" fill="#081837"/>
</svg>