<svg width="41" height="41" viewBox="0 0 41 41" fill="none" xmlns="http://www.w3.org/2000/svg">
<path d="M36.0556 0.00790528C35.7581 0.0563254 35.4109 0.105085 35.1133 0.153506C34.5679 0.250686 34.0224 0.396288 33.5264 0.68749C33.3282 0.78467 33.1791 0.930271 32.9809 1.02745C32.7329 1.22147 32.4849 1.36741 32.2867 1.56143C32.0885 1.70704 31.9394 1.9014 31.7907 2.047C31.6419 2.1926 31.4434 2.38696 31.2947 2.58098C31.1459 2.72658 30.9972 2.92094 30.8979 3.11496C30.6997 3.35774 30.5506 3.60053 30.3524 3.84296C30.1044 4.18292 29.8564 4.52254 29.6088 4.86252C29.3113 5.29933 29.0138 5.6877 28.7658 6.17325C28.3691 6.80441 28.0716 7.53244 27.7742 8.21203C27.6254 8.55199 27.5261 8.89161 27.4269 9.2316C27.3276 9.6684 27.2781 10.0568 27.3774 10.4936C27.4269 10.7364 27.6254 10.9304 27.8236 11.0276C28.0218 11.1732 28.3196 11.1732 28.5178 11.1248C28.7658 11.0764 28.964 10.9308 29.0633 10.688C29.1626 10.5424 29.212 10.348 29.1626 10.154V10.1056V9.86279C29.212 9.66876 29.2618 9.4744 29.3608 9.23163C29.46 9.03761 29.5095 8.79483 29.6088 8.60048C29.8568 8.11491 30.1048 7.58091 30.3525 7.14412C30.5012 6.90134 30.6499 6.70732 30.7987 6.46454C30.9969 6.12458 31.2449 5.83339 31.4929 5.54215C31.7903 5.20219 32.0383 4.81415 32.3358 4.47422C32.534 4.2802 32.7326 4.03742 32.9308 3.84306C33.129 3.64904 33.3275 3.5031 33.5257 3.30908C33.873 3.0663 34.2199 2.82352 34.6166 2.62951C34.7159 2.58109 34.8646 2.53233 35.0134 2.53233C35.1621 2.48391 35.2614 2.48391 35.4101 2.48391C35.6083 2.48391 35.8069 2.43549 36.0051 2.43549H36.3523C36.4018 2.67827 36.4516 2.92105 36.5011 3.16348C36.5505 3.3575 36.6003 3.55186 36.6003 3.74589C36.6498 4.08585 36.6996 4.37704 36.6996 4.71665C36.6996 5.20221 36.7491 5.68741 36.7491 6.1242C36.7491 6.99779 36.7491 7.87173 36.6498 8.74532V8.8425C36.6003 9.18246 36.5011 9.57049 36.4516 9.91043C36.3523 10.2988 36.2534 10.7356 36.1541 11.124C35.9559 11.9007 35.7574 12.6775 35.4599 13.4055C35.2617 13.7939 35.1126 14.2307 34.9639 14.619C34.9639 14.6675 34.9144 14.7162 34.9144 14.8131C34.865 14.9587 34.865 15.153 34.865 15.2986C34.9145 15.6386 34.9144 15.7354 35.0632 15.9782C35.1625 16.1722 35.3607 16.3666 35.5592 16.5606C35.7574 16.7062 35.9065 16.8518 36.1047 16.949C36.2534 17.0946 36.4022 17.1918 36.5014 17.3374C36.5509 17.3858 36.6007 17.483 36.6007 17.5314C36.8982 18.2594 37.0967 19.0361 37.3444 19.8129C37.4931 20.2013 37.5426 20.6381 37.5924 21.0264C37.6418 21.4632 37.7411 21.8516 37.8404 22.2885C37.9397 22.6284 37.9891 23.0164 38.0386 23.3564C38.088 23.6476 38.1379 23.9388 38.1873 24.1816C38.2368 24.5699 38.2368 24.9583 38.2866 25.3467C38.3361 25.7835 38.3361 26.2203 38.3859 26.6574C38.3859 27.0458 38.4353 27.4342 38.3859 27.871C38.3364 28.3078 38.2866 28.7445 38.2371 29.1817V29.3757C38.0884 30.2009 37.8404 30.9776 37.6422 31.8028C37.5429 32.1912 37.444 32.5796 37.3447 32.9679C37.196 33.3563 37.0472 33.7931 36.8985 34.1815C36.8985 34.2299 36.8985 34.2299 36.849 34.2787C36.601 34.8127 36.3036 35.3466 35.9566 35.7834C35.4606 36.3174 34.9151 36.803 34.4195 37.3369C34.1221 37.5797 33.874 37.8709 33.626 38.1137C33.4773 38.2593 33.378 38.4049 33.2293 38.5021L32.9318 38.7933C32.8326 38.8904 32.7336 38.9873 32.6838 39.0845V39.1329C32.5351 39.4241 32.4856 39.7153 32.5845 40.0065C32.6838 40.3949 33.0308 40.6861 33.4275 40.8317C33.9235 40.9773 34.469 40.7832 34.7664 40.3948C34.8159 40.2977 34.9152 40.2492 34.9646 40.1521C35.1134 40.0065 35.2126 39.8609 35.3614 39.7153C35.6589 39.3753 35.9563 39.0841 36.2538 38.7929C36.6011 38.4529 36.8985 38.1617 37.2454 37.8705C37.3942 37.7249 37.5429 37.5793 37.6422 37.3849C37.8404 37.1421 37.9895 36.9481 38.1382 36.7053C38.3862 36.317 38.5844 35.8318 38.7829 35.3946C38.8822 35.2006 38.9317 35.0062 39.031 34.8122C39.0804 34.6182 39.1797 34.4238 39.2292 34.2298C39.3779 33.8414 39.5266 33.453 39.6259 33.0162C39.7252 32.6279 39.8241 32.1911 39.9234 31.8027C40.0226 31.4143 40.1216 30.9775 40.2706 30.5891C40.3699 30.1523 40.4688 29.7155 40.5187 29.3271C40.6179 28.8415 40.6674 28.3564 40.7169 27.8224C40.8161 26.9972 40.8161 26.1232 40.7663 25.2981C40.7169 24.8613 40.7169 24.4245 40.667 23.9874C40.6176 23.5018 40.5183 22.9678 40.419 22.4826C40.3198 22.0943 40.2208 21.6575 40.171 21.2691C40.1216 20.8323 40.0223 20.3955 39.9728 19.9583C39.9234 19.5215 39.7746 19.1332 39.6256 18.7448C39.4768 18.3564 39.3775 17.9196 39.2288 17.5312C39.0801 16.9972 38.8815 16.4633 38.5841 16.0265C38.3859 15.7837 38.2368 15.5409 37.9891 15.3469C37.9397 15.2985 37.8404 15.2013 37.7411 15.1529V15.1045C37.9393 14.6677 38.1379 14.2793 38.2866 13.8425C38.4353 13.4057 38.5841 12.9689 38.6833 12.5317C38.7826 12.0949 38.9313 11.7066 39.0306 11.2697C39.1299 10.8329 39.2288 10.3961 39.3281 10.0077C39.5263 9.03695 39.6256 8.06619 39.6256 7.095C39.6256 6.17261 39.6256 5.2503 39.5263 4.27954C39.4768 3.74556 39.3775 3.16315 39.2783 2.62919C39.2288 2.38641 39.179 2.19238 39.1295 1.94961C39.0303 1.60965 38.8815 1.27004 38.6833 0.97885C38.5841 0.88167 38.4851 0.736069 38.3859 0.638889C38.2866 0.541709 38.1379 0.444867 38.0386 0.347687C37.7906 0.153665 37.4436 0.104906 37.1462 0.104906H37.0967C36.5021 -0.0406952 36.2541 0.00772573 36.0556 0.00772573L36.0556 0.00790528ZM38.3862 35.5409C38.3862 35.4925 38.4357 35.4925 38.4357 35.4437C38.436 35.4922 38.436 35.4922 38.3862 35.5409ZM38.4855 35.3466C38.4855 35.395 38.4855 35.395 38.436 35.4437C38.436 35.3953 38.4855 35.3466 38.4855 35.2981V35.3466V35.3466Z" fill="black"/>
<path d="M25.6911 7.58058C25.5423 7.58058 25.3936 7.629 25.1951 7.629C24.9471 7.67742 24.699 7.7746 24.4514 7.87178C24.2532 7.9202 24.0547 8.01738 23.9059 8.11456C23.4597 8.30858 23.0135 8.45452 22.567 8.55136C22.1208 8.69696 21.6247 8.79414 21.1785 8.84256C20.7818 8.89132 20.3854 8.89132 19.9886 8.89132C19.5918 8.8429 19.1951 8.6973 18.7984 8.60012C18.4511 8.50294 18.0547 8.4061 17.7075 8.35734C17.3107 8.30892 16.914 8.26016 16.5173 8.21174C16.17 8.16332 15.8726 8.11456 15.5256 8.06614C15.1784 8.01772 14.8314 8.01772 14.534 8.11456C14.2365 8.21174 14.038 8.30858 13.8398 8.50294C13.5423 8.79414 13.3438 9.23094 13.3438 9.61933C13.3438 9.91053 13.443 10.1533 13.5419 10.4445C13.6412 10.5417 13.6907 10.6385 13.79 10.7845C13.9882 10.9785 14.2362 11.1244 14.4842 11.1728C14.6824 11.2213 14.8809 11.27 15.0791 11.27H15.2773H15.6246C15.8726 11.27 16.1206 11.27 16.4181 11.3184C16.8148 11.3184 17.1617 11.3669 17.5585 11.4156C18.0545 11.5128 18.6 11.5612 19.0956 11.6097C19.1949 11.6097 19.3436 11.6581 19.4429 11.6581C19.6909 11.7065 19.9389 11.6581 20.1866 11.6581C20.4346 11.6581 20.6826 11.6097 20.9302 11.6097C21.9219 11.5125 22.8641 11.1728 23.8063 10.8817C24.2031 10.7845 24.55 10.5905 24.8972 10.4449C25.1947 10.3477 25.4922 10.2021 25.7896 10.1536H25.8391C25.8886 10.1536 25.8886 10.1536 25.9384 10.2021C25.9878 10.2505 26.0871 10.2505 26.1366 10.2992C26.4838 10.4449 26.7813 10.6392 27.0788 10.8332C27.3268 11.0273 27.7236 11.0273 28.0211 10.9788C28.3185 10.8817 28.616 10.6876 28.7647 10.3964C28.9135 10.1052 28.9629 9.76527 28.9135 9.47404C28.8142 9.13408 28.616 8.94005 28.3185 8.74604C27.9712 8.50326 27.5749 8.26048 27.1781 8.06647C26.9301 7.96929 26.7319 7.82368 26.4839 7.77526C26.4344 7.77526 26.3846 7.77526 26.3352 7.72684C26.1864 7.67842 25.9879 7.67842 25.8391 7.67842C25.8398 7.58057 25.7406 7.58057 25.6911 7.58057L25.6911 7.58058Z" fill="black"/>
<path d="M4.91411 0.97914C4.61664 1.3191 4.4181 1.70714 4.26937 2.14424C4.1701 2.4842 4.07117 2.7754 3.9719 3.115C3.92244 3.40621 3.87263 3.64899 3.82316 3.94018C3.62496 4.91094 3.52569 5.8817 3.42642 6.90126C3.37696 7.33807 3.37696 7.77485 3.32715 8.212V8.84315C3.32715 9.27995 3.37661 9.71674 3.42642 10.1539C3.47588 10.5907 3.57516 11.0275 3.67443 11.4646C3.72389 11.6586 3.82316 11.853 3.87263 12.0958C3.92209 12.3385 3.9719 12.5326 4.02136 12.7753C4.07083 12.9209 4.07083 13.0665 4.07083 13.2121C4.07083 13.1637 4.07083 13.0665 4.02136 13.0181C4.07083 13.5037 4.07083 13.9889 4.07083 14.4745C4.07083 14.7657 4.07083 15.0085 4.02136 15.2997C4.02136 15.5424 4.02136 15.8336 4.12064 16.0764C4.31884 16.7076 4.96358 17.2415 5.65776 17.1928C5.85596 17.1928 6.0545 17.1444 6.20324 17.0472C6.45125 16.9016 6.64945 16.6588 6.69925 16.416C6.79853 15.9792 6.64979 15.5425 6.30251 15.2997C6.25305 15.2025 6.25305 15.0569 6.25305 14.9597C6.20359 14.6197 6.20359 14.2317 6.15378 13.8918C6.10431 13.3578 6.0545 12.8722 5.90577 12.3382C5.85631 12.0955 5.8065 11.9014 5.70757 11.6587C5.65811 11.4646 5.55883 11.2703 5.50937 11.0275C5.4101 10.6391 5.36063 10.2507 5.26136 9.81395C5.26136 9.66834 5.2119 9.52274 5.26136 9.37714V9.13436C5.26136 8.98876 5.26136 8.84316 5.31082 8.69756C5.36029 8.40635 5.36029 8.16357 5.4101 7.87238C5.50937 7.1928 5.6083 6.46483 5.75738 5.78523C5.80684 5.44527 5.90611 5.05724 6.00538 4.7173C6.05485 4.52328 6.10466 4.32892 6.15412 4.1349C6.20358 3.94087 6.25339 3.69809 6.35232 3.50374C6.50106 3.55216 6.64979 3.64934 6.79853 3.69776C7.19527 3.89179 7.59201 4.13457 7.93895 4.42576C8.33569 4.76572 8.73243 5.10534 9.12914 5.39652C9.62515 5.7849 10.1208 6.17328 10.6663 6.51291C10.9637 6.75569 11.2612 7.04689 11.5587 7.33809C11.8067 7.67805 12.0049 8.06608 12.2529 8.40602C12.4511 8.74598 12.6496 9.08559 12.8478 9.37678C13.046 9.66796 13.2446 10.0079 13.4428 10.2992C13.6908 10.6391 13.889 11.0272 14.137 11.3671C14.4842 11.8527 14.8806 12.2895 15.2279 12.7747C15.3766 12.9687 15.7239 13.0659 15.9716 13.0659C16.269 13.0659 16.517 12.9687 16.7152 12.7747C16.9134 12.5806 17.0127 12.3379 17.0127 12.0467C17.0127 11.9495 17.0127 11.8526 16.9632 11.7555C16.9138 11.5614 16.8145 11.4155 16.7152 11.3187C16.5665 11.1246 16.4178 10.9303 16.269 10.7363C15.773 10.0567 15.3268 9.3287 14.8806 8.6003C14.6824 8.26034 14.4838 7.8723 14.2856 7.53237C14.1864 7.33835 14.0874 7.09556 13.9882 6.90121C13.8394 6.56125 13.6907 6.22164 13.4427 5.88165C13.0459 5.29925 12.5997 4.81372 12.1037 4.32812C11.7564 3.98816 11.459 3.69697 11.1121 3.40573C10.7648 3.11453 10.4673 2.77457 10.1698 2.48334C9.77307 2.09496 9.32687 1.75534 8.88063 1.46377C8.7817 1.31885 8.5835 1.22167 8.38496 1.12449C8.08748 0.978889 7.79001 0.833288 7.49256 0.736107C7.29401 0.639265 7.09581 0.590507 6.89761 0.493665C6.69942 0.445244 6.45141 0.396484 6.25287 0.396484H6.20341C5.70739 0.396484 5.26116 0.590506 4.91396 0.978889L4.91411 0.97914Z" fill="black"/>
<path d="M5.60881 16.5122C5.3608 16.5606 5.1626 16.6578 4.9146 16.755C4.76587 16.8034 4.61713 16.8522 4.46839 16.949C4.31966 17.0462 4.17092 17.143 4.07165 17.2402C3.87345 17.3858 3.72437 17.5802 3.52617 17.7258C3.32797 17.9686 3.17889 18.1626 2.98069 18.4054C2.73268 18.7937 2.58395 19.2305 2.43521 19.6189C2.38575 19.7161 2.38575 19.8129 2.33594 19.9101C2.23667 20.1529 2.1872 20.3957 2.1872 20.6381C2.1872 20.7837 2.23667 20.9781 2.23667 21.1237C2.28613 21.2209 2.28613 21.3665 2.33594 21.4636C2.3854 21.6092 2.48467 21.7548 2.53414 21.9004C2.63341 22.046 2.73234 22.1916 2.83161 22.3372C2.93088 22.4828 3.02981 22.58 3.17889 22.7256C3.27816 22.8228 3.4269 22.9196 3.52617 23.0168V23.0652C3.37743 23.2593 3.27816 23.4052 3.12943 23.5992C3.03015 23.6964 2.98069 23.7932 2.93123 23.9392C2.83195 24.1332 2.73303 24.3276 2.63375 24.5703C2.43556 24.9587 2.33628 25.3955 2.18755 25.8324C2.08828 26.2207 1.98935 26.6575 1.89008 27.0944C1.7908 27.5799 1.74134 28.0651 1.69188 28.5507C1.64241 28.9875 1.64241 29.4731 1.5926 29.9099C1.54314 30.2011 1.44387 30.5411 1.39441 30.8323C1.29513 31.1723 1.19621 31.5119 1.1464 31.9002C1.04712 32.2402 0.997661 32.5798 0.948198 32.9198C0.898735 33.1138 0.898735 33.2598 0.848925 33.4538C0.848925 33.551 0.799463 33.5994 0.799463 33.6966C0.75 33.8422 0.75 33.9878 0.75 34.1334C0.75 34.4733 0.898736 34.8129 1.14674 35.007C1.29548 35.1526 1.44422 35.2497 1.64276 35.2982C1.94023 35.3953 2.2377 35.3466 2.4857 35.201C2.73371 35.0554 2.93191 34.8126 2.98172 34.5698C2.98172 34.4726 3.03118 34.3758 3.03118 34.2786V34.0358V33.9387V33.7446V33.3563C3.03118 33.1135 3.03118 32.8707 3.08064 32.6767C3.13011 32.3367 3.17992 31.9487 3.27884 31.6088C3.32831 31.366 3.37812 31.1232 3.42758 30.8808C3.47704 30.638 3.52685 30.3468 3.52685 30.104V28.7933C3.52685 28.4049 3.57631 28.0165 3.62612 27.6769C3.7254 27.1913 3.77486 26.7545 3.9236 26.3177C4.07233 25.8809 4.22107 25.3953 4.3698 24.9585C4.46907 24.7157 4.66727 24.4729 4.81601 24.2305C4.86547 24.1333 4.96475 24.0365 5.01421 23.9877C5.11348 23.8421 5.21241 23.6478 5.26222 23.4537C5.31168 23.211 5.31168 23.0169 5.26222 22.7742C5.26222 22.677 5.21276 22.5802 5.16295 22.483C5.06367 22.2402 4.96475 22.0946 4.81566 21.9006L4.56766 21.6578C4.41892 21.5122 4.27019 21.3666 4.12145 21.1722C4.07199 21.075 4.02218 20.9782 3.97271 20.881C3.97271 20.8326 3.92325 20.7354 3.92325 20.687V20.6386C3.97271 20.493 3.97271 20.3474 4.02252 20.2018C4.07199 20.0078 4.1218 19.8134 4.22072 19.6678C4.36946 19.425 4.46873 19.1822 4.66693 18.9398C4.81567 18.7458 4.9644 18.5998 5.16295 18.4542C5.21241 18.4058 5.31168 18.3571 5.36115 18.3571C5.65862 18.2115 6.00589 18.1143 6.35281 18.0659C6.40227 18.0659 6.45208 18.1143 6.45208 18.163C6.60081 18.2602 6.89829 18.3086 7.04702 18.2602C7.24522 18.2118 7.44377 18.0662 7.54304 17.9202C7.64231 17.7262 7.69177 17.5319 7.64231 17.3378C7.59285 17.1438 7.44411 16.9979 7.29503 16.8523C7.04702 16.7067 6.79901 16.6095 6.50155 16.5611H6.40228C6.10481 16.3664 5.8568 16.4151 5.6088 16.5123L5.60881 16.5122Z" fill="black"/>
<path d="M28.4191 20.1042C28.2703 20.1526 28.1216 20.2014 27.9728 20.2982C27.7746 20.3954 27.6256 20.4923 27.4274 20.6382C27.2292 20.7838 27.0306 20.9294 26.8324 21.075C26.6837 21.2206 26.535 21.3178 26.3862 21.4634C26.1382 21.7062 25.94 21.9002 25.7913 22.1914C25.692 22.3854 25.5931 22.5798 25.5433 22.7738C25.4938 22.9678 25.444 23.1622 25.444 23.3562C25.3945 23.5502 25.3945 23.6961 25.3945 23.8902C25.3945 24.0842 25.3945 24.2301 25.444 24.4241C25.4935 24.6182 25.692 24.7641 25.8902 24.7641C26.0389 24.7641 26.1382 24.7157 26.2375 24.6185C26.3368 24.5213 26.3862 24.4245 26.3862 24.2785C26.4357 24.1329 26.4357 23.9873 26.4855 23.8417C26.535 23.599 26.5848 23.3562 26.6837 23.1137C26.7332 23.0166 26.8324 22.871 26.8819 22.7738C26.9812 22.6766 27.0801 22.5798 27.1794 22.531C27.3776 22.3854 27.6256 22.2398 27.8241 22.0942C28.0721 21.9486 28.2703 21.8514 28.5183 21.7058C28.7165 21.6086 28.9151 21.5602 29.1133 21.5118H29.3115C29.5595 21.5602 29.8075 21.609 30.0551 21.7058C30.1544 21.7542 30.3031 21.8514 30.4024 21.8998C30.7991 22.1426 31.2948 21.997 31.4933 21.6086C31.5926 21.4146 31.6421 21.2203 31.5926 20.9775C31.5431 20.7835 31.3944 20.6375 31.2453 20.4919C30.8486 20.2491 30.4518 20.1035 30.0056 20.0064C29.7082 19.9579 29.4602 19.9092 29.1627 19.9092H29.1132C28.9147 19.9586 28.667 20.0558 28.419 20.1042L28.4191 20.1042Z" fill="black"/>
<path d="M27.6748 21.1234V22.6281V23.1621C27.6748 23.5505 27.6748 24.0357 28.121 24.1329H28.369C28.4683 24.1329 28.5178 24.0845 28.617 23.9873C28.6665 23.9389 28.6665 23.8901 28.7163 23.8901C28.7163 23.8417 28.7658 23.7929 28.7658 23.7445C28.7658 23.6961 28.8152 23.6473 28.8152 23.5989C28.8152 23.5017 28.8647 23.4533 28.8647 23.3561C28.9142 23.2105 28.9142 23.0649 28.964 22.8706C29.0134 22.4822 29.1127 22.1426 29.1622 21.7542C29.1622 21.657 29.1127 21.5602 29.0629 21.463C28.9636 21.3174 28.8647 21.2202 28.7156 21.1718V21.0262C28.7156 20.735 28.4676 20.4922 28.1701 20.4922C27.9228 20.6378 27.6748 20.8806 27.6748 21.1233L27.6748 21.1234Z" fill="black"/>
<path d="M30.6502 22.5803C30.6007 22.7743 30.5509 22.9202 30.5014 23.1143C30.452 23.2114 30.4021 23.3083 30.3032 23.4055C30.2039 23.5511 30.0552 23.6967 29.9065 23.7938C29.7577 23.9394 29.609 24.0366 29.4603 24.1338C29.4108 24.1822 29.3115 24.231 29.2621 24.2794C29.1628 24.3278 29.0639 24.3766 28.9646 24.425C28.9151 24.4734 28.8159 24.4734 28.7664 24.5222C28.7169 24.5706 28.6177 24.5706 28.5682 24.6194C28.37 24.6678 28.2707 24.8622 28.3202 25.0078C28.3202 25.1049 28.4195 25.1534 28.4689 25.2018C28.5682 25.2502 28.6177 25.2502 28.7169 25.2502C28.8657 25.2018 29.0642 25.153 29.213 25.1046C29.3617 25.0562 29.5104 25.0074 29.6097 24.959C29.8079 24.8618 29.957 24.765 30.1552 24.619C30.3039 24.5219 30.4526 24.3763 30.6014 24.2307C30.7501 24.085 30.8989 23.9394 30.9981 23.7938C31.0476 23.6967 31.0974 23.6482 31.1469 23.5511C31.1963 23.4539 31.2461 23.357 31.2956 23.2599C31.3451 23.1627 31.3451 23.1143 31.3949 23.0171C31.4443 22.9199 31.4443 22.8231 31.4941 22.7259C31.5436 22.4831 31.4447 22.2403 31.1967 22.1919H31.0974C30.8982 22.2887 30.6996 22.3859 30.6502 22.5803V22.5803Z" fill="black"/>
<path d="M13.691 20.2989C13.443 20.3474 13.2448 20.4445 12.9968 20.5417C12.7986 20.6389 12.6001 20.7357 12.4513 20.8329C12.0546 20.9785 11.6579 21.0757 11.2612 21.1729C10.9139 21.2701 10.567 21.3669 10.2196 21.4157C10.1204 21.4641 10.0214 21.5128 9.97164 21.5613C9.87236 21.6584 9.77344 21.804 9.77344 21.9981C9.77344 22.2893 10.0709 22.6292 10.3684 22.5805C10.9139 22.5321 11.4593 22.4349 11.9554 22.2893C12.3026 22.1921 12.699 22.0952 12.9969 21.9493C13.1951 21.8521 13.3936 21.7553 13.5918 21.6581C13.79 21.6097 13.9391 21.5609 14.1373 21.5125C14.782 21.4641 15.4265 21.4641 16.0712 21.5125C16.1705 21.5125 16.2694 21.5609 16.3192 21.5609C16.3687 21.6093 16.468 21.6093 16.5174 21.6581C16.6167 21.7553 16.6662 21.8521 16.7654 21.9493C16.8149 21.9977 16.8647 22.0465 16.9142 22.1433C16.9636 22.1918 17.0629 22.2405 17.1124 22.2889C17.1618 22.3861 17.1618 22.483 17.2116 22.6289C17.3109 23.3085 17.3604 24.0364 17.3604 24.716C17.3604 24.9588 17.5586 25.1528 17.8066 25.1528C18.0546 25.1528 18.3026 24.9588 18.2528 24.716C18.2528 24.1821 18.2033 23.6965 18.1535 23.1625C18.1535 22.9197 18.104 22.6285 18.0542 22.3858C18.0542 22.2402 18.0048 22.0458 17.955 21.9002C17.9055 21.803 17.9055 21.7546 17.8557 21.7062C17.8062 21.6578 17.7564 21.5606 17.707 21.5121L17.6077 21.415C17.5582 21.3178 17.5084 21.2694 17.4589 21.1722C17.3597 21.0266 17.2607 20.9294 17.1615 20.7838C17.0622 20.6866 16.9633 20.6382 16.864 20.5898C16.8145 20.5414 16.7647 20.5414 16.7647 20.4926C16.616 20.3954 16.4673 20.347 16.2687 20.2986C16.1694 20.2502 16.0705 20.2502 15.9214 20.2502C15.7727 20.2502 15.624 20.2017 15.4752 20.2017C15.277 20.2017 15.0785 20.1533 14.8803 20.1533H14.6323C14.3853 20.2017 14.038 20.2502 13.6911 20.2989L13.691 20.2989Z" fill="black"/>
<path d="M13.0462 21.6577C12.8975 21.7549 12.7487 21.8517 12.6495 21.9489C12.5007 22.0461 12.4014 22.1917 12.3022 22.3373C12.2029 22.4829 12.1534 22.6772 12.104 22.8228C12.0545 22.9684 12.0047 23.1628 11.9552 23.3084C11.9552 23.454 11.9058 23.5996 11.9058 23.7452C11.9058 23.8424 11.8563 23.9392 11.9058 24.0364C11.9058 24.182 11.9552 24.2792 12.005 24.4248C12.1043 24.6188 12.2032 24.8132 12.3025 24.9588C12.4018 25.0559 12.5007 25.1528 12.6498 25.25C13.2447 25.6868 13.939 25.9295 14.683 26.0751H14.8317C14.931 26.0751 15.0299 26.0267 15.1292 25.9779C15.2285 25.9295 15.3274 25.7839 15.3772 25.638C15.4765 25.3468 15.2779 25.0556 14.9804 24.9584C14.8317 24.91 14.7324 24.8612 14.5837 24.8128C14.2364 24.6672 13.8895 24.4729 13.592 24.2788C13.4928 24.1816 13.3938 24.1332 13.2946 24.036C13.2946 23.9876 13.2451 23.9876 13.2451 23.9389V23.8904C13.2451 23.7448 13.2946 23.6477 13.2946 23.5021C13.2946 23.3565 13.344 23.2593 13.3938 23.1137C13.4433 23.0653 13.4433 23.0165 13.4931 22.9681L13.5426 22.9197C13.592 22.8712 13.6913 22.8225 13.7408 22.7741C13.8895 22.6769 13.9888 22.58 14.0382 22.3857C14.0877 22.2401 14.0382 22.0457 13.9888 21.9001C13.8895 21.7545 13.7408 21.6573 13.592 21.6089H13.3938C13.2448 21.5605 13.096 21.6089 13.0462 21.6577L13.0462 21.6577Z" fill="black"/>
<path d="M14.3362 21.2204C14.138 21.4144 14.0882 21.6087 14.0882 21.8515C14.0882 22.1427 14.0387 22.4339 14.0387 22.7739C14.0387 23.1139 13.9893 23.5019 14.0882 23.8418C14.1875 24.133 14.3857 24.3274 14.6831 24.4242C14.8319 24.4727 14.9806 24.4727 15.1293 24.4242C15.2781 24.3758 15.3774 24.3271 15.5261 24.2302C15.7741 24.0362 15.8236 23.6962 15.9228 23.405C15.9723 23.211 15.9228 23.0167 15.8236 22.8711C15.8236 22.5311 15.873 22.2399 15.873 21.9003C15.873 21.6575 15.7738 21.4635 15.625 21.2691C15.4763 21.1235 15.2283 21.0264 14.9803 21.0264C14.7326 21.0264 14.4849 21.0748 14.3362 21.2204L14.3362 21.2204Z" fill="black"/>
<path d="M19.3439 28.8423C19.1952 28.9395 19.0464 29.0363 18.9471 29.1335C18.7984 29.2307 18.6991 29.3275 18.5504 29.4247C18.4511 29.5219 18.3522 29.6675 18.3024 29.8131C18.3024 29.9103 18.2529 29.9587 18.2529 30.0559C18.2529 30.1531 18.2529 30.2499 18.3024 30.3471C18.4017 30.5899 18.5504 30.7839 18.6991 30.9295C18.8479 31.0267 18.9966 31.1235 19.0959 31.2207C19.1453 31.2691 19.1952 31.3179 19.2446 31.3663C19.2941 31.4147 19.2941 31.4635 19.3439 31.5119C19.3934 31.6091 19.3934 31.6575 19.4432 31.7547C19.4926 31.8519 19.5424 31.9487 19.5919 32.0459C19.6414 32.1431 19.7406 32.2399 19.7901 32.2887C19.8396 32.3858 19.9883 32.4343 20.0876 32.4827C20.1868 32.5311 20.2858 32.5799 20.4349 32.5799C20.6331 32.5799 20.7821 32.5314 20.9309 32.3858C21.1291 32.1918 21.2283 31.8034 21.0301 31.5607C20.9309 31.2695 20.7821 30.9295 20.6334 30.6383C20.5341 30.4927 20.4352 30.3471 20.2861 30.2499C20.1868 30.1527 20.0879 30.1043 19.9886 30.0559C19.9392 30.0559 19.9392 30.0074 19.8894 30.0074C19.9388 29.959 19.9886 29.959 19.9886 29.9103C20.1374 29.8131 20.2367 29.7162 20.2861 29.5219C20.3356 29.3763 20.2861 29.1819 20.2367 29.0363C20.1374 28.8423 19.8894 28.7451 19.6417 28.7451C19.5421 28.7451 19.4432 28.7939 19.3439 28.8423V28.8423ZM20.9305 31.4634C20.9305 31.4634 20.9305 31.5119 20.98 31.5119C20.9803 31.5122 20.9305 31.5122 20.9305 31.4634Z" fill="black"/>
<path d="M23.9062 30.0066C23.9062 30.3466 24.2037 30.6378 24.551 30.6378C24.8983 30.6378 25.1957 30.3466 25.1957 30.0066C25.1957 29.6667 24.8983 29.3755 24.551 29.3755C24.2037 29.3755 23.9062 29.6667 23.9062 30.0066Z" fill="black"/>
<path d="M20.4352 28.5998C20.3359 28.5998 20.1872 28.6483 20.0879 28.6483C20.0385 28.6483 19.9887 28.6967 19.8897 28.6967C19.7905 28.7451 19.6417 28.7451 19.5424 28.7939C19.3442 28.891 19.1457 28.9395 18.9475 29.0851C18.898 29.1335 18.8482 29.1335 18.7988 29.1822C18.6995 29.2794 18.65 29.3763 18.6006 29.4734C18.5511 29.6675 18.6006 29.8618 18.65 30.0074C18.7493 30.153 18.898 30.2502 19.0468 30.2986C19.1955 30.3471 19.4435 30.3471 19.5923 30.2502C19.6915 30.2018 19.741 30.153 19.8403 30.1046C19.989 30.0562 20.1875 30.0074 20.3363 29.959H20.4355C20.6337 30.0074 20.8323 30.1046 21.0305 30.153C21.2287 30.2502 21.4767 30.2502 21.6752 30.2502C21.7745 30.2502 21.8734 30.2502 21.9727 30.2018C22.1709 30.2018 22.3695 30.1534 22.6175 30.1534C22.8157 30.1534 23.0142 30.105 23.2124 30.105H23.4106H23.4601C23.5593 30.2021 23.7081 30.299 23.8073 30.4449C24.0055 30.6877 24.4023 30.6877 24.6503 30.5421C24.799 30.4449 24.9478 30.2993 24.9976 30.1053C25.047 29.9113 24.9976 29.7653 24.9481 29.5713C24.8488 29.3773 24.7001 29.2313 24.5514 29.0857C24.3532 28.8917 24.1051 28.6974 23.7579 28.6489C23.4106 28.5518 23.0637 28.6489 22.667 28.6974C22.5182 28.6974 22.3695 28.7458 22.2207 28.7458C22.0225 28.7458 21.7745 28.7942 21.576 28.843H21.5265C21.2291 28.7458 20.9811 28.6002 20.6836 28.5518C20.6832 28.5998 20.584 28.5998 20.4352 28.5998C20.4847 28.5998 20.4847 28.5998 20.4352 28.5998H20.4352Z" fill="black"/>
<path d="M24.1544 30.1529C23.9562 30.2501 23.7082 30.3957 23.5097 30.4929C23.4104 30.5413 23.3609 30.5901 23.2616 30.6385C23.1624 30.6869 23.0634 30.7841 23.0136 30.8325C22.9642 30.8809 22.9144 30.9781 22.8649 31.0265C22.7656 31.1237 22.7656 31.2693 22.7656 31.4149C22.7656 31.7061 22.9638 31.9489 23.2616 32.0461C23.3609 32.0945 23.5096 32.0945 23.6089 32.0461C23.6584 32.0461 23.7082 31.9977 23.7577 31.9977C23.8071 31.9492 23.8569 31.9492 23.9064 31.9005C24.0551 31.8033 24.2039 31.7549 24.3526 31.6577C24.5508 31.5605 24.7493 31.4637 24.9475 31.3665C25.0963 31.2693 25.245 31.1237 25.2948 30.9297C25.3443 30.7357 25.2948 30.5413 25.2454 30.3957C25.1461 30.2501 24.9974 30.1045 24.7992 30.0557C24.7497 30.0557 24.6999 30.0073 24.601 30.0073C24.3526 30.0557 24.2537 30.0557 24.1544 30.1529L24.1544 30.1529Z" fill="black"/>
<path d="M21.8736 32.4342C21.6754 32.4826 21.5263 32.6282 21.4274 32.7741C21.4274 32.8226 21.3779 32.8713 21.3281 32.9682C21.2786 33.1138 21.2786 33.2109 21.3281 33.3565C21.3776 33.5993 21.4274 33.8421 21.5761 34.0361C21.6256 34.1817 21.7743 34.2789 21.8241 34.4245C21.8736 34.5217 21.9729 34.6185 22.0721 34.6673C22.1714 34.7645 22.2703 34.8129 22.3696 34.9101C22.4689 35.0072 22.6176 35.1041 22.7169 35.2013C22.8656 35.2984 22.9649 35.3469 23.1136 35.3953C23.2129 35.4437 23.3118 35.4925 23.4609 35.4925C23.9071 35.5896 24.3533 35.5896 24.7999 35.5896C25.0479 35.5896 25.2959 35.444 25.3453 35.1528C25.3948 35.0072 25.3453 34.8616 25.2959 34.716C25.2464 34.6189 25.0977 34.4733 24.9486 34.4733C24.5519 34.4248 24.2049 34.3277 23.8577 34.1821C23.7584 34.1336 23.6595 34.0849 23.5602 34.0365C23.4609 33.9393 23.4115 33.8909 23.3122 33.7937C23.2129 33.6965 23.114 33.5996 23.0147 33.4537C22.9653 33.4053 22.9155 33.3565 22.9155 33.2597C22.866 33.1625 22.866 33.0169 22.8162 32.9197C22.7667 32.7257 22.618 32.5798 22.4689 32.4829C22.3696 32.4345 22.2209 32.3857 22.0722 32.3857C22.0223 32.4342 21.9234 32.4342 21.8736 32.4342L21.8736 32.4342Z" fill="black"/>
<path d="M21.7247 32.5797C21.4767 32.6281 21.328 32.7737 21.1793 33.0165C21.1298 33.0649 21.08 33.1137 21.08 33.2105C20.9807 33.3077 20.9313 33.4045 20.832 33.4533C20.4847 33.6961 20.1378 33.8417 19.7905 34.0357C19.5923 34.1329 19.4432 34.2297 19.245 34.3269C19.1955 34.3269 19.1955 34.3753 19.1457 34.3753C18.7984 34.4725 18.501 34.8121 18.501 35.2005C18.501 35.4433 18.6002 35.6373 18.749 35.7829C18.8977 35.9285 19.1457 36.0257 19.3439 36.0257C19.5919 35.9773 19.8894 35.9773 20.1374 35.8801C20.3854 35.7829 20.5836 35.6861 20.8316 35.5889C21.1291 35.4433 21.3771 35.2977 21.6746 35.1033C21.8728 34.9577 22.1208 34.7634 22.3193 34.6178C22.5175 34.4237 22.6666 34.181 22.8153 33.9866C23.1128 33.5498 22.9146 32.967 22.468 32.773C22.3193 32.6759 22.1706 32.6274 22.0218 32.6274C21.8734 32.5309 21.824 32.5797 21.7247 32.5797L21.7247 32.5797Z" fill="black"/>
<path d="M20.8818 34.7159C20.8818 34.9099 21.08 35.1043 21.2786 35.1043C21.8735 35.1527 22.4688 35.1527 23.1132 35.2014C23.2125 35.2014 23.3114 35.153 23.3612 35.1043C23.4107 35.0558 23.4605 34.9587 23.4605 34.8615C23.4605 34.7643 23.411 34.6675 23.3612 34.6187L23.3118 34.5703C23.2623 34.5219 23.2125 34.5219 23.1136 34.5219C22.8161 34.4734 22.5681 34.4734 22.2706 34.4247C21.9234 34.3763 21.6259 34.3763 21.279 34.3763C21.0804 34.3275 20.8819 34.5215 20.8819 34.7159L20.8818 34.7159Z" fill="black"/>
<path d="M27.2792 21.0757C27.1304 21.2213 26.9817 21.4641 27.0312 21.7069C27.0806 22.0469 27.0806 22.4349 27.1304 22.7748C27.1304 22.9688 27.1799 23.1632 27.2297 23.406C27.2297 23.4544 27.2297 23.5032 27.2792 23.5032C27.3286 23.6003 27.3286 23.6972 27.3785 23.7459C27.4279 23.8431 27.4777 23.94 27.5766 24.0371C27.6261 24.0856 27.7254 24.1343 27.7748 24.1827C27.9236 24.2799 28.0229 24.2799 28.2211 24.2799C28.3203 24.2799 28.3698 24.2799 28.4691 24.2315C28.6178 24.1831 28.7665 24.0859 28.8658 23.9887C29.0145 23.8431 29.1138 23.6488 29.2131 23.4547C29.3124 23.2607 29.3618 23.0664 29.4611 22.8723C29.5106 22.7267 29.5604 22.5811 29.6098 22.484C29.6593 22.2899 29.7091 22.0471 29.7091 21.8528C29.7091 21.5128 29.5109 21.2704 29.1636 21.1732C29.0149 21.1248 28.8662 21.1248 28.7174 21.1732C28.668 21.1248 28.668 21.076 28.6181 21.076C28.4694 20.9304 28.2214 20.8333 27.9734 20.8333C27.6756 20.7845 27.4279 20.8817 27.2792 21.0757L27.2792 21.0757Z" fill="black"/>
<path d="M14.9314 20.9294C14.6834 21.075 14.5841 21.415 14.7332 21.7062C14.7826 21.7546 14.7826 21.8034 14.8324 21.8518C14.8819 22.0458 14.9317 22.1918 14.9812 22.3858C14.9812 22.483 15.0306 22.5314 15.0306 22.6286V23.0169C15.0306 23.0654 14.9812 23.1141 14.9812 23.1141C14.9812 23.1625 14.9317 23.1625 14.9317 23.2113C14.8823 23.3085 14.9317 23.4053 14.9317 23.5025C14.9812 23.6965 15.1299 23.7937 15.279 23.8425C15.3783 23.8909 15.4772 23.8909 15.5765 23.8425C15.6757 23.8425 15.7747 23.7453 15.8245 23.6969C15.8739 23.6484 15.9237 23.5513 15.9732 23.5028C16.0227 23.4057 16.0227 23.3572 16.0725 23.2601C16.1219 23.0173 16.1219 22.8233 16.0725 22.5805C16.0725 22.4349 16.023 22.2893 16.023 22.0949C15.9736 21.9493 15.9736 21.8037 15.9237 21.6094C15.8743 21.4153 15.775 21.2694 15.6757 21.0754C15.5765 20.8814 15.3783 20.7842 15.1797 20.7842C15.1296 20.881 15.0306 20.881 14.9314 20.9294V20.9294Z" fill="black"/>
<path d="M15.9234 21.0749C15.8241 21.4633 15.6754 21.8029 15.5761 22.1913C15.4769 22.5313 15.3779 22.8709 15.3281 23.2109C15.3281 23.308 15.3281 23.3565 15.3776 23.4537C15.4271 23.5021 15.4769 23.5993 15.5758 23.5993C15.7245 23.6477 15.9231 23.5508 15.9725 23.3565C16.0718 23.0165 16.1707 22.6769 16.2205 22.3857C16.3198 21.9973 16.4685 21.6577 16.5678 21.2693C16.6173 21.0753 16.5184 20.8809 16.3198 20.8325H16.2205C16.122 20.8325 15.9729 20.9294 15.9234 21.075V21.0749Z" fill="black"/>
<path d="M6.20367 30.9298C6.05493 30.9782 5.9062 31.0754 5.80693 31.221C5.75746 31.3666 5.65819 31.5122 5.65819 31.7065C5.60873 31.8521 5.60873 32.0465 5.65819 32.2405C5.65819 32.4345 5.70765 32.5805 5.75746 32.7745C5.75746 32.8717 5.80693 32.9685 5.85674 33.0657C5.9062 33.1141 5.9062 33.1629 5.95601 33.2113C6.10474 33.5025 6.35275 33.6969 6.60075 33.8909C6.74949 33.988 6.89822 34.1337 7.04696 34.1821C7.19569 34.2793 7.34443 34.3277 7.54297 34.4249C7.79098 34.522 8.03899 34.6189 8.28665 34.7161C8.38592 34.7645 8.48484 34.8132 8.58412 34.8132C8.83213 34.8617 9.03032 34.9104 9.27832 34.9588C9.77434 35.056 10.27 35.1044 10.7162 35.1529H11.3111H11.6086H11.7573C11.8068 35.2013 11.8566 35.25 11.9061 35.2985C12.0053 35.4441 12.1541 35.5897 12.2533 35.7353C12.5508 36.0752 12.8483 36.3664 13.1457 36.6577C13.7905 37.1916 14.4847 37.6284 15.2778 37.9684C15.6746 38.1624 16.0713 38.3083 16.5175 38.4539C16.8648 38.5511 17.2612 38.5995 17.6084 38.6967C17.7572 38.6967 17.9557 38.7451 18.1045 38.7451H18.055C18.5012 38.7936 18.8979 38.8423 19.3442 38.8907C19.5424 38.8907 19.7409 38.9392 19.9391 38.9879C20.1373 39.0363 20.3359 39.0364 20.5839 39.0364H21.1788C21.5261 39.0364 21.873 38.9879 22.1705 38.8907C22.6167 38.7936 23.0629 38.648 23.5094 38.5508C23.7574 38.5024 23.9062 38.2108 23.8567 37.9684C23.8072 37.7256 23.5094 37.58 23.2618 37.6284C23.0137 37.6768 22.7657 37.7256 22.5675 37.774C22.3195 37.8224 22.0221 37.9196 21.7741 37.968C21.4766 38.0165 21.1791 38.0165 20.8817 38.0165H20.4355C20.2867 38.0165 20.1875 38.0165 20.0387 37.968C19.5925 37.9196 19.1958 37.8709 18.7495 37.8224C18.5015 37.774 18.2535 37.774 18.0059 37.7253C17.7579 37.6768 17.5597 37.6281 17.3117 37.5797C16.9644 37.4825 16.6175 37.3856 16.2701 37.2397C15.5759 36.9485 14.9312 36.6085 14.3857 36.1718C13.741 35.6862 13.2453 35.1038 12.7493 34.4726C12.6999 34.3754 12.6501 34.327 12.5511 34.2298C12.4519 34.1327 12.353 34.0842 12.2039 34.0358C12.1544 34.0358 12.1046 33.9874 12.0551 33.9874C11.8569 33.939 11.6584 33.939 11.4602 33.939C11.1627 33.8905 10.8154 33.8905 10.5179 33.8418C10.3692 33.8418 10.2699 33.7934 10.1212 33.7934C9.923 33.7449 9.67499 33.6962 9.47645 33.6478C9.37718 33.6478 9.32772 33.5993 9.27825 33.5993C9.17898 33.5509 9.08005 33.5509 8.98078 33.5022C8.68331 33.405 8.38584 33.3081 8.08838 33.211C7.84038 33.1138 7.64218 32.9682 7.39418 32.8226C7.29491 32.7254 7.14617 32.6286 7.0469 32.5314C6.99744 32.483 6.99743 32.4342 6.94762 32.3858C6.94728 32.2893 6.89782 32.1921 6.89782 32.0949V31.9493C6.89782 31.9009 6.94728 31.8037 6.94728 31.7553V31.7069C6.99674 31.6097 6.99674 31.4641 6.94728 31.3669C6.89782 31.2213 6.79854 31.0757 6.64981 30.9785C6.55053 30.9301 6.45161 30.8813 6.30253 30.8813C6.30253 30.8813 6.25306 30.9298 6.2036 30.9298L6.20367 30.9298ZM11.7079 35.056C11.7573 35.056 11.7573 35.056 11.7079 35.056C11.7573 35.056 11.7573 35.056 11.7079 35.056C11.7573 35.056 11.7573 35.056 11.7079 35.056ZM18.2532 38.7452H18.154C18.2038 38.6967 18.2038 38.7452 18.2532 38.7452ZM17.7572 38.6483H17.7078H17.7572ZM17.7078 38.6483C17.6583 38.6483 17.6583 38.6483 17.7078 38.6483H17.6085H17.7078Z" fill="black"/>
<path d="M32.4854 21.2697C32.2872 21.3181 32.1381 21.4153 32.0392 21.6096C31.9399 21.7552 31.8904 21.998 31.9897 22.1436C32.0392 22.3376 32.1879 22.4836 32.337 22.5804C32.5352 22.726 32.7832 22.8716 32.9817 23.0172C33.1799 23.1628 33.3785 23.26 33.5767 23.4056C34.4691 24.0852 35.1637 25.0075 36.1553 25.6387C36.4033 25.7843 36.7008 25.7359 36.899 25.5415C37.147 25.2988 37.147 24.9104 36.899 24.7164C36.651 24.4736 36.4528 24.2308 36.2543 23.9884C36.0561 23.7456 35.8575 23.5516 35.6095 23.3088C35.4113 23.1148 35.1633 22.872 34.9648 22.6776C34.6673 22.4348 34.3698 22.1921 34.0724 21.9981C33.7749 21.804 33.4276 21.5613 33.1301 21.3669C33.0308 21.3185 32.8821 21.2697 32.7828 21.2697C32.5846 21.221 32.5352 21.2697 32.4854 21.2697L32.4854 21.2697Z" fill="black"/>
<path d="M10.1211 26.2212C10.0218 26.2212 9.97232 26.3184 9.92286 26.3668C9.87305 26.4636 9.87305 26.6092 9.87305 26.7064V26.852V26.9976C9.87305 27.0948 9.92251 27.2404 9.97232 27.3376C10.0716 27.5316 10.1705 27.726 10.3196 27.8716C10.4189 28.0172 10.5676 28.1628 10.6669 28.2599C10.8156 28.4055 10.9644 28.5511 11.1629 28.6967C11.3116 28.8423 11.4604 28.9395 11.6091 29.0851C11.7084 29.1823 11.8571 29.2791 11.9564 29.3763C12.1051 29.4735 12.3037 29.6191 12.4524 29.7163C12.6011 29.7647 12.7004 29.8619 12.8491 29.9103C12.9484 29.9587 12.9979 29.9587 13.0972 30.0075C13.1964 30.0559 13.2954 30.1047 13.4444 30.1531C13.5932 30.2015 13.7419 30.2503 13.8906 30.2987C14.1881 30.3471 14.4361 30.2015 14.5354 29.9587C14.5848 29.8131 14.5354 29.6675 14.4859 29.5704C14.4365 29.4732 14.2877 29.3763 14.1885 29.3276C13.9903 29.2792 13.7917 29.182 13.5935 29.1336C13.296 28.9879 12.9986 28.8908 12.7506 28.7452C12.3044 28.5511 11.9076 28.2596 11.5109 27.9684C11.2134 27.7256 10.9159 27.4828 10.6679 27.1917C10.6185 27.1432 10.6185 27.0945 10.5687 27.0461C10.6679 27.0461 10.7174 26.9976 10.7669 26.9489C10.8163 26.8517 10.8163 26.7061 10.6676 26.6089C10.6181 26.5605 10.5683 26.5605 10.5189 26.5117C10.4694 26.4633 10.4196 26.4146 10.3701 26.4146C10.3207 26.4146 10.2708 26.3661 10.2214 26.3661C10.1705 26.2212 10.1705 26.2212 10.1211 26.2212L10.1211 26.2212Z" fill="black"/>
<path d="M31.8898 26.7549C31.7906 26.7549 31.6916 26.7549 31.5924 26.8033C31.4931 26.8033 31.4436 26.8517 31.3444 26.9005C31.2451 26.9489 31.1956 26.9977 31.0964 27.0461C30.9476 27.1433 30.7491 27.1917 30.6003 27.2889C30.4021 27.386 30.2036 27.4829 30.0054 27.6288C29.9061 27.726 29.7574 27.8229 29.6581 27.8716C29.6087 27.8716 29.6087 27.92 29.5588 27.92C29.5094 27.9685 29.4101 28.0656 29.3607 28.1141C29.2614 28.2597 29.2119 28.4053 29.2119 28.5996C29.2119 28.7452 29.2614 28.8424 29.3112 28.988C29.3606 29.0364 29.4105 29.1336 29.4599 29.182C29.5592 29.3276 29.7574 29.376 29.9559 29.376C30.1541 29.376 30.3032 29.3276 30.452 29.182C30.5512 29.0848 30.6502 28.9392 30.6502 28.7452C30.7989 28.648 30.9476 28.5996 31.0964 28.5024C31.2451 28.454 31.3938 28.3568 31.4931 28.3084C31.5924 28.26 31.7411 28.1628 31.8404 28.1144C31.9397 28.066 32.0386 27.9688 32.0884 27.9204C32.1877 27.8232 32.2371 27.7263 32.2866 27.6292C32.3361 27.532 32.3859 27.4351 32.3859 27.338C32.3859 27.2408 32.3364 27.1439 32.2866 27.0468C32.2866 26.8521 32.088 26.7549 31.8898 26.7549V26.7549ZM30.4021 28.1628C30.4519 28.1628 30.4519 28.2112 30.4021 28.1628C30.4519 28.2112 30.4519 28.1628 30.4021 28.1628Z" fill="black"/>
<path d="M30.9976 31.4633C30.9482 31.4633 30.8983 31.5117 30.7994 31.5117C30.7001 31.5601 30.6012 31.6573 30.5514 31.7545C30.5019 31.8517 30.4521 31.9001 30.3532 31.9973C29.6095 32.9197 28.7662 33.6964 27.8738 34.4244C27.4771 34.7643 27.0804 35.104 26.6837 35.3951C26.5844 35.4923 26.4855 35.5407 26.3364 35.6379C26.2869 35.6379 26.2371 35.6863 26.1876 35.6863C26.0884 35.7348 26.0389 35.8319 25.9396 35.9291C25.8404 36.0747 25.8404 36.2691 25.8902 36.4147C25.9396 36.5603 26.0389 36.7059 26.1876 36.8031C26.3364 36.9003 26.4851 36.9003 26.6837 36.8515C27.1797 36.7543 27.6259 36.4147 28.0226 36.1235C28.3201 35.9295 28.5681 35.6867 28.8161 35.4923C29.3121 35.104 29.7583 34.7156 30.2045 34.3272C30.502 34.036 30.75 33.7933 30.998 33.5021C31.1467 33.3565 31.246 33.2109 31.3948 33.0165C31.5435 32.8225 31.6922 32.6765 31.7915 32.4825C31.8908 32.3369 31.8908 32.0941 31.841 31.9485C31.7915 31.7545 31.6922 31.6086 31.4937 31.5117C31.3944 31.4633 31.2457 31.4146 31.1464 31.4146C31.1464 31.4633 31.0471 31.4633 30.9977 31.4633L30.9976 31.4633Z" fill="black"/>
<path d="M29.312 31.1239C29.2127 31.4151 29.4112 31.755 29.7087 31.8034C30.3036 31.949 30.8989 32.0946 31.4939 32.2402C32.0888 32.3858 32.684 32.5802 33.279 32.7258C33.8739 32.9198 34.4692 33.0658 35.0641 33.3082C35.6096 33.5022 36.1551 33.6966 36.7005 33.9394C37.2955 34.1821 37.841 34.4249 38.4363 34.6674C38.6843 34.7645 38.9817 34.9101 39.2297 35.0073C39.5272 35.1529 39.8247 35.2985 40.1221 35.4441C40.3203 35.5413 40.6182 35.4925 40.7171 35.2985C40.7666 35.2013 40.8164 35.0557 40.7666 34.9586C40.7171 34.8614 40.6673 34.7645 40.5684 34.7158C40.3702 34.5702 40.1221 34.4246 39.9236 34.3274C39.7254 34.2302 39.5269 34.1334 39.3287 34.0362C38.8825 33.7934 38.4363 33.5994 38.0395 33.405C37.7915 33.2594 37.494 33.1623 37.1965 33.0167C36.5518 32.7255 35.9569 32.4827 35.3121 32.2399C34.6674 31.9971 34.0229 31.8031 33.3782 31.6088C32.7335 31.4147 32.089 31.2688 31.4443 31.0748C30.9981 30.9292 30.5021 30.832 30.0559 30.7348H29.9071C29.6093 30.6871 29.4111 30.8811 29.3118 31.1239H29.312Z" fill="black"/>
<path d="M28.4689 33.1627C28.3696 33.5027 28.5682 33.8907 28.9151 33.9879C29.2624 34.0851 29.6588 34.1819 30.006 34.3278C30.3035 34.425 30.5515 34.5219 30.849 34.619C31.345 34.7646 31.7912 34.959 32.2868 35.1046C32.6836 35.2986 33.1298 35.4446 33.5265 35.6386C33.7247 35.7358 33.8738 35.7842 34.072 35.8814C34.2702 35.9786 34.4688 36.0754 34.667 36.1726C35.0637 36.3666 35.4106 36.5125 35.8074 36.755C36.2041 36.9978 36.6503 37.2405 37.0471 37.483C37.1467 37.5314 37.246 37.5314 37.3452 37.5314C37.494 37.5314 37.6925 37.483 37.7914 37.3374C37.8907 37.2402 37.9896 37.0462 37.9896 36.9006C37.9896 36.755 37.9402 36.5606 37.7914 36.4638C37.3947 36.1238 36.9485 35.8326 36.5023 35.5414C36.3041 35.3958 36.1055 35.2986 35.9073 35.2014C35.7586 35.1042 35.56 35.0074 35.3618 34.9586C35.1636 34.8615 34.9651 34.7646 34.7669 34.6674C34.5687 34.5702 34.4196 34.5218 34.2214 34.4246C33.9239 34.279 33.6265 34.1819 33.329 34.0363C33.1308 33.9391 32.9323 33.8422 32.7341 33.7935C32.2381 33.6479 31.7424 33.4535 31.2962 33.3079C30.9987 33.2107 30.7013 33.1139 30.4533 33.0167C30.106 32.8711 29.7096 32.7739 29.3623 32.6768C29.2129 32.6771 29.1631 32.6771 29.1136 32.6771C28.8162 32.6771 28.5682 32.8715 28.4689 33.1627L28.4689 33.1627Z" fill="black"/>
<path d="M27.9238 34.3756C27.8245 34.4728 27.7256 34.6668 27.7256 34.8124C27.7256 34.958 27.775 35.1524 27.9238 35.2492C28.866 36.026 29.8082 36.7539 30.7999 37.5307C30.9981 37.6763 31.2461 37.8219 31.4446 38.0163C31.6428 38.1619 31.8908 38.3075 32.0893 38.4531C32.2875 38.5987 32.4366 38.6958 32.6348 38.793C32.7836 38.8902 32.9821 39.0358 33.1308 39.133C33.4781 39.3758 33.8745 39.6186 34.2218 39.8126C34.5192 40.0066 34.916 39.861 35.1142 39.5698C35.3124 39.2786 35.1636 38.8902 34.8662 38.6962C34.2712 38.3562 33.7257 37.9682 33.1803 37.6283C32.9323 37.4827 32.6843 37.3371 32.4861 37.1427C32.1886 36.9487 31.9406 36.7543 31.6431 36.5603C30.7009 35.8323 29.7587 35.1039 28.8663 34.3272C28.8168 34.2788 28.767 34.2788 28.7176 34.23C28.6183 34.1816 28.5194 34.1328 28.3703 34.1328C28.2212 34.1816 28.023 34.23 27.9237 34.3756L27.9238 34.3756Z" fill="black"/>
<path d="M12.7987 31.6576C12.5506 31.6576 12.2532 31.706 12.0052 31.7548C11.6084 31.8032 11.2117 31.8519 10.815 31.9488C10.1208 32.046 9.42654 32.1916 8.73231 32.2887C8.63304 32.2887 8.53411 32.3372 8.43484 32.3372C8.18683 32.3856 7.93882 32.4343 7.74063 32.4828C7.54243 32.5312 7.34389 32.5799 7.14569 32.6284C6.79841 32.7255 6.45148 32.8224 6.15403 32.9196C5.50929 33.1136 4.86485 33.3564 4.22012 33.6476C3.87284 33.7932 3.52591 33.9388 3.22846 34.0844C2.88118 34.23 2.53425 34.3756 2.18695 34.5699C1.98875 34.6671 1.98875 34.9099 2.03821 35.0555C2.08767 35.1527 2.18694 35.2011 2.23641 35.2011C2.33568 35.2495 2.43461 35.2011 2.53388 35.1527C2.98009 34.9586 3.42628 34.7643 3.87283 34.5703C4.26957 34.4247 4.6165 34.2303 5.01325 34.0847C5.45946 33.8907 5.9555 33.7447 6.4017 33.5991C6.69917 33.502 6.99665 33.4051 7.2941 33.3564C7.74031 33.2592 8.1865 33.1623 8.58329 33.0164C8.83129 32.968 9.12876 32.9192 9.37676 32.8708C9.62477 32.8224 9.87278 32.7736 10.1204 32.7252C10.2197 32.7252 10.3684 32.6768 10.4677 32.6768C11.1125 32.5796 11.7569 32.434 12.451 32.3368C12.7485 32.2884 13.046 32.2884 13.294 32.2396C13.5915 32.2396 13.8889 32.2396 14.1864 32.288C14.3846 32.3365 14.5831 32.3852 14.7813 32.4337C14.9301 32.4821 15.0788 32.3852 15.1286 32.2396C15.1781 32.094 15.0791 31.9484 14.9304 31.8997C14.6824 31.8512 14.4344 31.8025 14.2362 31.7541C13.9882 31.7056 13.6907 31.7056 13.4427 31.7056C13.2947 31.6088 13.0467 31.6088 12.7987 31.6576L12.7987 31.6576Z" fill="black"/>
</svg>
