<svg width="22" height="19" viewBox="0 0 22 19" fill="none" xmlns="http://www.w3.org/2000/svg">
<path d="M10.6366 12.0694C10.2757 12.0694 9.96276 11.9201 9.31299 11.5022L0.914609 6.03949C0.50554 5.77088 0.000128844 6.15881 0.000128844 6.72601V16.2186C0.000128844 17.5618 0.890459 18.6365 1.94928 18.6365H19.3236C20.4064 18.6365 21.2727 17.532 21.2727 16.2186V6.75586C21.2727 6.1589 20.7673 5.80052 20.3582 6.06934L11.9599 11.5022C11.3101 11.8903 10.9972 12.0694 10.6363 12.0694M19.9491 0.636528H1.94915C0.866309 0.636528 0 1.74096 0 3.0544C0 3.35299 0.120355 3.62162 0.336889 3.74092L10.3476 10.2783C10.5401 10.3976 10.7566 10.3976 10.9251 10.2783L20.9358 3.74092C21.1524 3.59162 21.2727 3.35279 21.2727 3.0544V2.27833C21.2725 1.38275 20.6709 0.636475 19.949 0.636475" fill="#0B0908"/>
</svg>
