<svg width="22" height="19" viewBox="0 0 22 19" fill="none" xmlns="http://www.w3.org/2000/svg">
<path d="M10.6366 12.0693C10.2757 12.0693 9.96276 11.92 9.31299 11.5021L0.914609 6.03937C0.50554 5.77076 0.000128844 6.15868 0.000128844 6.72589V16.2185C0.000128844 17.5617 0.890459 18.6364 1.94928 18.6364H19.3236C20.4064 18.6364 21.2727 17.5319 21.2727 16.2185V6.75574C21.2727 6.15877 20.7673 5.8004 20.3582 6.06922L11.9599 11.5021C11.3101 11.8902 10.9972 12.0693 10.6363 12.0693M19.9491 0.636406H1.94915C0.866309 0.636406 0 1.74084 0 3.05428C0 3.35287 0.120355 3.6215 0.336889 3.7408L10.3476 10.2781C10.5401 10.3975 10.7566 10.3975 10.9251 10.2781L20.9358 3.7408C21.1524 3.5915 21.2727 3.35267 21.2727 3.05428V2.27821C21.2725 1.38263 20.6709 0.636353 19.949 0.636353" fill="white"/>
</svg>
