<svg width="263" height="49" viewBox="0 0 263 49" fill="none" xmlns="http://www.w3.org/2000/svg">
<path d="M1.26 34L8.352 7.396H14.49L21.51 34H17.496L11.394 9.862H11.43L5.292 34H1.26ZM5.364 27.25V24.01H17.46V27.25H5.364ZM37.1633 34V25.9C37.1633 25.168 37.1633 24.538 37.1633 24.01C37.1633 23.47 37.1633 23.014 37.1633 22.642C37.1633 22.174 37.1273 21.676 37.0553 21.148C36.9953 20.62 36.8513 20.128 36.6233 19.672C36.4073 19.204 36.0653 18.826 35.5973 18.538C35.1293 18.25 34.4873 18.106 33.6713 18.106C32.8553 18.106 32.1653 18.268 31.6013 18.592C31.0373 18.916 30.5813 19.348 30.2333 19.888C29.8853 20.416 29.6333 21.01 29.4773 21.67C29.3213 22.318 29.2433 22.972 29.2433 23.632L27.5873 22.732C27.5873 21.232 27.8813 19.87 28.4693 18.646C29.0693 17.41 29.9093 16.426 30.9893 15.694C32.0813 14.95 33.3653 14.578 34.8413 14.578C36.3413 14.578 37.5413 14.89 38.4413 15.514C39.3533 16.126 40.0133 16.966 40.4213 18.034C40.8293 19.09 41.0333 20.29 41.0333 21.634C41.0333 22.126 41.0333 22.768 41.0333 23.56C41.0333 24.352 41.0333 25.27 41.0333 26.314V34H37.1633ZM25.3373 34V14.884H29.2433V34H25.3373ZM48.9353 34V25.918C48.9353 25.126 48.9353 24.466 48.9353 23.938C48.9353 23.398 48.9353 22.948 48.9353 22.588C48.9353 22.096 48.9053 21.592 48.8453 21.076C48.7853 20.548 48.6413 20.062 48.4133 19.618C48.1853 19.174 47.8313 18.814 47.3513 18.538C46.8833 18.25 46.2293 18.106 45.3893 18.106C44.5613 18.106 43.8653 18.268 43.3013 18.592C42.7493 18.904 42.3053 19.324 41.9693 19.852C41.6333 20.368 41.3933 20.938 41.2493 21.562C41.1053 22.186 41.0333 22.804 41.0333 23.416L39.3773 22.552C39.3773 21.112 39.6653 19.786 40.2413 18.574C40.8293 17.362 41.6573 16.396 42.7253 15.676C43.8053 14.944 45.0833 14.578 46.5593 14.578C47.9993 14.578 49.1813 14.866 50.1053 15.442C51.0293 16.018 51.7133 16.816 52.1573 17.836C52.6013 18.856 52.8233 20.038 52.8233 21.382C52.8233 21.898 52.8233 22.546 52.8233 23.326C52.8233 24.106 52.8233 25.012 52.8233 26.044V34H48.9353ZM57.8405 34V14.884H61.6925V34H57.8405ZM59.7845 10.924C59.1125 10.924 58.5305 10.744 58.0385 10.384C57.5585 10.012 57.3185 9.502 57.3185 8.854C57.3185 8.218 57.5585 7.72 58.0385 7.36C58.5305 6.988 59.1125 6.802 59.7845 6.802C60.4445 6.802 61.0145 6.988 61.4945 7.36C61.9865 7.72 62.2325 8.218 62.2325 8.854C62.2325 9.502 61.9865 10.012 61.4945 10.384C61.0145 10.744 60.4445 10.924 59.7845 10.924ZM80.4999 34V25.18C80.4999 24.664 80.4999 24.226 80.4999 23.866C80.4999 23.506 80.4999 23.17 80.4999 22.858C80.4999 21.922 80.3559 21.1 80.0679 20.392C79.7799 19.672 79.3059 19.114 78.6459 18.718C77.9859 18.31 77.1039 18.106 75.9999 18.106C75.0279 18.106 74.1459 18.346 73.3539 18.826C72.5739 19.306 71.9499 19.96 71.4819 20.788C71.0259 21.604 70.7979 22.534 70.7979 23.578L69.1239 22.75C69.1239 21.202 69.4899 19.816 70.2219 18.592C70.9539 17.356 71.9319 16.378 73.1559 15.658C74.3919 14.938 75.7419 14.578 77.2059 14.578C78.7179 14.578 80.0079 14.872 81.0759 15.46C82.1559 16.036 82.9779 16.864 83.5419 17.944C84.1179 19.012 84.4059 20.29 84.4059 21.778C84.4059 22.33 84.4059 22.942 84.4059 23.614C84.4059 24.286 84.4059 24.934 84.4059 25.558V34H80.4999ZM66.8919 34V14.884H70.7979V34H66.8919ZM95.9456 34.378C94.5056 34.378 93.2396 34.15 92.1476 33.694C91.0676 33.238 90.2276 32.584 89.6276 31.732C89.0276 30.88 88.7276 29.854 88.7276 28.654C88.7276 27.37 89.0636 26.308 89.7356 25.468C90.4196 24.628 91.3556 23.98 92.5436 23.524C93.7436 23.056 95.1056 22.75 96.6296 22.606C98.8976 22.378 100.494 22.156 101.418 21.94C102.354 21.724 102.822 21.37 102.822 20.878C102.822 20.866 102.822 20.854 102.822 20.842C102.822 19.87 102.408 19.132 101.58 18.628C100.752 18.124 99.5696 17.872 98.0336 17.872C96.4136 17.872 95.1596 18.16 94.2716 18.736C93.3956 19.3 92.9576 20.2 92.9576 21.436H89.1236C89.1236 19.972 89.5016 18.73 90.2576 17.71C91.0256 16.69 92.0816 15.916 93.4256 15.388C94.7696 14.848 96.3116 14.578 98.0516 14.578C99.6476 14.578 101.1 14.824 102.408 15.316C103.728 15.796 104.778 16.516 105.558 17.476C106.338 18.436 106.728 19.63 106.728 21.058C106.728 21.31 106.728 21.562 106.728 21.814C106.728 22.054 106.728 22.3 106.728 22.552V30.184C106.728 30.628 106.746 31.06 106.782 31.48C106.818 31.888 106.884 32.254 106.98 32.578C107.088 32.95 107.214 33.256 107.358 33.496C107.514 33.736 107.64 33.904 107.736 34H103.848C103.776 33.928 103.668 33.778 103.524 33.55C103.392 33.31 103.272 33.034 103.164 32.722C103.056 32.422 102.972 32.08 102.912 31.696C102.864 31.3 102.84 30.874 102.84 30.418L103.56 30.922C103.2 31.618 102.654 32.224 101.922 32.74C101.202 33.256 100.332 33.658 99.3116 33.946C98.3036 34.234 97.1816 34.378 95.9456 34.378ZM96.7556 31.138C97.8716 31.138 98.8856 30.964 99.7976 30.616C100.722 30.256 101.46 29.716 102.012 28.996C102.564 28.264 102.84 27.346 102.84 26.242V23.074L103.758 24.28C102.99 24.58 102.048 24.826 100.932 25.018C99.8276 25.198 98.6876 25.348 97.5116 25.468C95.8916 25.612 94.6736 25.894 93.8576 26.314C93.0416 26.722 92.6336 27.406 92.6336 28.366C92.6336 29.29 92.9696 29.986 93.6416 30.454C94.3256 30.91 95.3636 31.138 96.7556 31.138ZM119.174 34L126.266 7.396H132.404L139.424 34H135.41L129.308 9.862H129.344L123.206 34H119.174ZM123.278 27.25V24.01H135.374V27.25H123.278ZM147.373 5.866V34H143.521V5.866H147.373ZM153.989 25.81V22.768H168.065L167.525 23.668C167.525 23.596 167.525 23.524 167.525 23.452C167.525 23.368 167.525 23.296 167.525 23.236C167.525 22.264 167.315 21.37 166.895 20.554C166.475 19.726 165.845 19.066 165.005 18.574C164.177 18.07 163.139 17.818 161.891 17.818C160.643 17.818 159.545 18.088 158.597 18.628C157.661 19.156 156.929 19.912 156.401 20.896C155.885 21.868 155.627 23.038 155.627 24.406C155.627 25.798 155.879 26.998 156.383 28.006C156.887 29.002 157.613 29.77 158.561 30.31C159.509 30.85 160.643 31.12 161.963 31.12C162.887 31.12 163.685 31.03 164.357 30.85C165.041 30.658 165.599 30.406 166.031 30.094C166.475 29.782 166.811 29.446 167.039 29.086C167.267 28.714 167.399 28.348 167.435 27.988H171.323C171.251 28.768 170.993 29.542 170.549 30.31C170.117 31.066 169.499 31.756 168.695 32.38C167.903 32.992 166.931 33.484 165.779 33.856C164.639 34.216 163.325 34.396 161.837 34.396C159.845 34.396 158.099 33.976 156.599 33.136C155.099 32.296 153.929 31.132 153.089 29.644C152.249 28.144 151.829 26.428 151.829 24.496C151.829 22.528 152.255 20.8 153.107 19.312C153.959 17.824 155.141 16.666 156.653 15.838C158.165 14.998 159.899 14.578 161.855 14.578C163.847 14.578 165.569 14.998 167.021 15.838C168.485 16.678 169.613 17.836 170.405 19.312C171.197 20.788 171.593 22.486 171.593 24.406C171.593 24.634 171.587 24.898 171.575 25.198C171.563 25.498 171.545 25.702 171.521 25.81H153.989ZM189.555 34V25.18C189.555 24.664 189.555 24.226 189.555 23.866C189.555 23.506 189.555 23.17 189.555 22.858C189.555 21.922 189.411 21.1 189.123 20.392C188.835 19.672 188.361 19.114 187.701 18.718C187.041 18.31 186.159 18.106 185.055 18.106C184.083 18.106 183.201 18.346 182.409 18.826C181.629 19.306 181.005 19.96 180.537 20.788C180.081 21.604 179.853 22.534 179.853 23.578L178.179 22.75C178.179 21.202 178.545 19.816 179.277 18.592C180.009 17.356 180.987 16.378 182.211 15.658C183.447 14.938 184.797 14.578 186.261 14.578C187.773 14.578 189.063 14.872 190.131 15.46C191.211 16.036 192.033 16.864 192.597 17.944C193.173 19.012 193.461 20.29 193.461 21.778C193.461 22.33 193.461 22.942 193.461 23.614C193.461 24.286 193.461 24.934 193.461 25.558V34H189.555ZM175.947 34V14.884H179.853V34H175.947Z" fill="white"/>
<path d="M256.565 0.0094523C256.215 0.067348 255.806 0.12565 255.455 0.183547C254.813 0.299744 254.171 0.473839 253.587 0.822028C253.354 0.938226 253.178 1.11232 252.945 1.22852C252.653 1.46051 252.361 1.63501 252.128 1.867C251.894 2.04109 251.719 2.27349 251.544 2.44758C251.369 2.62168 251.135 2.85407 250.96 3.08606C250.785 3.26016 250.61 3.49255 250.493 3.72454C250.259 4.01484 250.084 4.30513 249.85 4.59501C249.558 5.0015 249.266 5.40757 248.975 5.81409C248.625 6.33638 248.274 6.80075 247.983 7.38133C247.515 8.13599 247.165 9.0065 246.815 9.81908C246.64 10.2256 246.523 10.6316 246.406 11.0382C246.289 11.5605 246.231 12.0248 246.348 12.5472C246.406 12.8374 246.64 13.0694 246.873 13.1856C247.107 13.3597 247.457 13.3597 247.691 13.3018C247.983 13.2439 248.216 13.0698 248.333 12.7796C248.45 12.6055 248.508 12.3731 248.45 12.1411V12.0832V11.7929C248.508 11.5609 248.567 11.3285 248.683 11.0382C248.8 10.8062 248.858 10.5159 248.975 10.2835C249.267 9.70296 249.559 9.06446 249.85 8.54218C250.026 8.25189 250.201 8.0199 250.376 7.72962C250.609 7.32313 250.901 6.97495 251.193 6.62672C251.543 6.22023 251.835 5.75626 252.185 5.3498C252.419 5.11781 252.653 4.82752 252.886 4.59513C253.119 4.36314 253.353 4.18864 253.586 3.95665C253.995 3.66636 254.404 3.37607 254.871 3.14409C254.988 3.08619 255.163 3.02789 255.338 3.02789C255.513 2.96999 255.63 2.96999 255.805 2.96999C256.038 2.96999 256.272 2.9121 256.505 2.9121H256.914C256.972 3.20239 257.031 3.49268 257.089 3.78256C257.147 4.01455 257.206 4.24695 257.206 4.47894C257.264 4.88543 257.323 5.2336 257.323 5.63967C257.323 6.22025 257.381 6.8004 257.381 7.32268C257.381 8.36722 257.381 9.41218 257.264 10.4567V10.5729C257.206 10.9794 257.089 11.4434 257.031 11.8498C256.914 12.3142 256.798 12.8365 256.681 13.3009C256.447 14.2297 256.214 15.1584 255.863 16.0289C255.63 16.4932 255.455 17.0155 255.28 17.4799C255.28 17.5378 255.221 17.5961 255.221 17.7119C255.163 17.886 255.163 18.1184 255.163 18.2925C255.221 18.699 255.221 18.8148 255.396 19.105C255.513 19.337 255.747 19.5694 255.98 19.8014C256.214 19.9755 256.389 20.1496 256.623 20.2658C256.798 20.4399 256.973 20.5561 257.09 20.7302C257.148 20.7881 257.207 20.9043 257.207 20.9622C257.557 21.8327 257.79 22.7614 258.082 23.6902C258.257 24.1545 258.315 24.6768 258.374 25.1412C258.432 25.6635 258.549 26.1279 258.666 26.6502C258.783 27.0567 258.841 27.5206 258.899 27.9271C258.958 28.2753 259.016 28.6235 259.074 28.9138C259.133 29.3782 259.133 29.8425 259.191 30.3069C259.25 30.8292 259.25 31.3514 259.308 31.8741C259.308 32.3385 259.366 32.8029 259.308 33.3252C259.25 33.8474 259.191 34.3697 259.133 34.8924V35.1244C258.958 36.111 258.666 37.0398 258.433 38.0265C258.316 38.4909 258.199 38.9552 258.082 39.4196C257.907 39.884 257.732 40.4062 257.557 40.8706C257.557 40.9285 257.557 40.9285 257.499 40.9868C257.207 41.6253 256.857 42.2637 256.448 42.786C255.864 43.4245 255.222 44.0051 254.639 44.6436C254.288 44.9339 253.996 45.282 253.704 45.5723C253.529 45.7464 253.412 45.9205 253.237 46.0367L252.887 46.3849C252.77 46.5011 252.654 46.6169 252.595 46.7331V46.791C252.42 47.1392 252.362 47.4874 252.478 47.8355C252.595 48.2999 253.004 48.6481 253.471 48.8222C254.055 48.9963 254.697 48.7643 255.047 48.2999C255.105 48.1837 255.222 48.1258 255.28 48.0096C255.456 47.8355 255.572 47.6614 255.747 47.4873C256.098 47.0808 256.448 46.7327 256.798 46.3844C257.207 45.9779 257.557 45.6298 257.966 45.2815C258.141 45.1074 258.316 44.9333 258.433 44.7009C258.666 44.4107 258.842 44.1787 259.017 43.8884C259.309 43.424 259.542 42.8438 259.776 42.3212C259.893 42.0892 259.951 41.8568 260.068 41.6248C260.126 41.3928 260.243 41.1604 260.301 40.9284C260.476 40.464 260.651 39.9996 260.768 39.4773C260.885 39.013 261.001 38.4907 261.118 38.0263C261.235 37.5619 261.352 37.0396 261.527 36.5753C261.644 36.053 261.76 35.5307 261.819 35.0663C261.936 34.4857 261.994 33.9055 262.052 33.2671C262.169 32.2804 262.169 31.2354 262.111 30.2488C262.052 29.7265 262.052 29.2043 261.994 28.6816C261.936 28.101 261.819 27.4625 261.702 26.8824C261.585 26.418 261.469 25.8957 261.41 25.4313C261.352 24.909 261.235 24.3868 261.177 23.8641C261.118 23.3418 260.943 22.8774 260.768 22.413C260.593 21.9487 260.476 21.4264 260.301 20.962C260.125 20.3235 259.892 19.6851 259.542 19.1628C259.308 18.8725 259.133 18.5822 258.841 18.3502C258.783 18.2923 258.666 18.1761 258.549 18.1182V18.0604C258.782 17.5381 259.016 17.0737 259.191 16.5514C259.366 16.0291 259.542 15.5068 259.658 14.9841C259.775 14.4619 259.95 13.9975 260.067 13.4752C260.184 12.9529 260.301 12.4306 260.417 11.9662C260.651 10.8054 260.768 9.6447 260.768 8.48345C260.768 7.38055 260.768 6.27776 260.651 5.11702C260.593 4.47854 260.476 3.78217 260.359 3.1437C260.301 2.85341 260.242 2.62142 260.184 2.33114C260.067 1.92465 259.892 1.51857 259.658 1.17041C259.542 1.05421 259.425 0.880114 259.308 0.763916C259.191 0.647719 259.016 0.531925 258.899 0.415728C258.607 0.183736 258.199 0.125435 257.849 0.125435H257.79C257.09 -0.048659 256.799 0.00923761 256.565 0.00923761L256.565 0.0094523ZM259.309 42.4961C259.309 42.4382 259.367 42.4382 259.367 42.3799C259.367 42.4378 259.367 42.4378 259.309 42.4961ZM259.425 42.2637C259.425 42.3216 259.425 42.3216 259.367 42.3799C259.367 42.322 259.425 42.2637 259.425 42.2058V42.2637Z" fill="white"/>
<path d="M244.364 9.06385C244.189 9.06385 244.013 9.12175 243.78 9.12175C243.488 9.17965 243.196 9.29585 242.904 9.41204C242.671 9.46994 242.437 9.58614 242.262 9.70234C241.737 9.93433 241.211 10.1088 240.686 10.2246C240.16 10.3987 239.576 10.5149 239.051 10.5728C238.584 10.6311 238.117 10.6311 237.65 10.6311C237.183 10.5732 236.716 10.3991 236.249 10.2829C235.84 10.1667 235.373 10.0509 234.965 9.99263C234.497 9.93473 234.03 9.87643 233.563 9.81853C233.155 9.76064 232.804 9.70233 232.396 9.64444C231.987 9.58654 231.579 9.58654 231.228 9.70233C230.878 9.81853 230.644 9.93432 230.411 10.1667C230.061 10.5149 229.827 11.0372 229.827 11.5016C229.827 11.8498 229.944 12.1401 230.06 12.4882C230.177 12.6044 230.236 12.7202 230.352 12.8947C230.586 13.1267 230.878 13.3012 231.17 13.3591C231.403 13.417 231.637 13.4753 231.87 13.4753H232.104H232.512C232.804 13.4753 233.096 13.4753 233.447 13.5332C233.914 13.5332 234.322 13.5911 234.789 13.6494C235.373 13.7656 236.015 13.8235 236.599 13.8814C236.716 13.8814 236.891 13.9393 237.008 13.9393C237.3 13.9972 237.592 13.9393 237.883 13.9393C238.175 13.9393 238.467 13.8814 238.759 13.8814C239.926 13.7652 241.036 13.3591 242.145 13.0109C242.612 12.8947 243.02 12.6627 243.429 12.4887C243.779 12.3725 244.129 12.1984 244.48 12.1405H244.538C244.596 12.1405 244.596 12.1405 244.655 12.1984C244.713 12.2563 244.83 12.2563 244.888 12.3146C245.297 12.4887 245.647 12.721 245.997 12.953C246.289 13.185 246.756 13.185 247.107 13.1271C247.457 13.0109 247.807 12.7789 247.982 12.4308C248.157 12.0826 248.216 11.6761 248.157 11.3279C248.04 10.9214 247.807 10.6894 247.457 10.4574C247.048 10.1671 246.581 9.87681 246.114 9.64483C245.822 9.52863 245.589 9.35454 245.297 9.29664C245.239 9.29664 245.18 9.29664 245.122 9.23874C244.947 9.18085 244.713 9.18085 244.538 9.18085C244.539 9.06384 244.422 9.06384 244.364 9.06384L244.364 9.06385Z" fill="white"/>
<path d="M219.903 1.17031C219.552 1.5768 219.319 2.04077 219.143 2.56342C219.027 2.96991 218.91 3.31809 218.793 3.72415C218.735 4.07234 218.676 4.36263 218.618 4.71081C218.385 5.87155 218.268 7.03228 218.151 8.25136C218.093 8.77365 218.093 9.29591 218.034 9.8186V10.5733C218.034 11.0956 218.092 11.6178 218.151 12.1405C218.209 12.6628 218.326 13.185 218.443 13.7077C218.501 13.9397 218.618 14.1721 218.676 14.4624C218.735 14.7527 218.793 14.9847 218.851 15.275C218.91 15.4491 218.91 15.6232 218.91 15.7973C218.91 15.7394 218.91 15.6232 218.851 15.5653C218.91 16.1458 218.91 16.726 218.91 17.3066C218.91 17.6548 218.91 17.9451 218.851 18.2933C218.851 18.5836 218.851 18.9318 218.968 19.222C219.202 19.9767 219.961 20.6151 220.778 20.5569C221.011 20.5569 221.245 20.499 221.42 20.3828C221.712 20.2087 221.946 19.9184 222.004 19.6281C222.121 19.1059 221.946 18.5836 221.537 18.2933C221.479 18.1771 221.479 18.003 221.479 17.8868C221.421 17.4803 221.421 17.0163 221.362 16.6099C221.304 15.9714 221.245 15.3908 221.07 14.7523C221.012 14.462 220.953 14.23 220.837 13.9398C220.778 13.7078 220.662 13.4754 220.603 13.1851C220.486 12.7207 220.428 12.2563 220.311 11.734C220.311 11.5599 220.253 11.3859 220.311 11.2118V10.9215C220.311 10.7474 220.311 10.5733 220.37 10.3992C220.428 10.051 220.428 9.7607 220.486 9.41252C220.603 8.59996 220.72 7.72952 220.895 6.91693C220.954 6.51044 221.07 6.04647 221.187 5.64001C221.245 5.40802 221.304 5.17562 221.362 4.94363C221.421 4.71164 221.479 4.42135 221.596 4.18896C221.771 4.24686 221.946 4.36306 222.121 4.42096C222.588 4.65295 223.055 4.94324 223.464 5.29142C223.931 5.69791 224.398 6.10398 224.865 6.45215C225.449 6.91654 226.032 7.38091 226.675 7.78701C227.025 8.0773 227.375 8.42549 227.725 8.77367C228.017 9.18016 228.25 9.64413 228.542 10.0506C228.776 10.4571 229.01 10.8632 229.243 11.2113C229.476 11.5595 229.71 11.966 229.943 12.3142C230.235 12.7207 230.469 13.1847 230.761 13.5911C231.169 14.1717 231.636 14.694 232.045 15.2741C232.22 15.5061 232.629 15.6223 232.92 15.6223C233.271 15.6223 233.563 15.5061 233.796 15.2741C234.029 15.0422 234.146 14.7519 234.146 14.4037C234.146 14.2875 234.146 14.1717 234.088 14.0555C234.03 13.8235 233.913 13.649 233.796 13.5332C233.621 13.3012 233.446 13.0688 233.271 12.8368C232.687 12.0243 232.161 11.1538 231.636 10.2829C231.403 9.8764 231.169 9.41243 230.936 9.00597C230.819 8.77398 230.702 8.48369 230.585 8.2513C230.41 7.84481 230.235 7.43874 229.943 7.03222C229.476 6.33584 228.951 5.7553 228.367 5.17467C227.958 4.76818 227.608 4.42 227.199 4.07177C226.79 3.72358 226.44 3.3171 226.09 2.96887C225.623 2.50449 225.098 2.09841 224.572 1.74979C224.456 1.5765 224.222 1.4603 223.989 1.34411C223.639 1.17001 223.288 0.995916 222.938 0.879718C222.704 0.763925 222.471 0.705624 222.238 0.589831C222.004 0.531935 221.712 0.473633 221.479 0.473633H221.42C220.836 0.473633 220.311 0.705624 219.902 1.17001L219.903 1.17031Z" fill="white"/>
<path d="M220.72 19.7438C220.428 19.8017 220.195 19.9179 219.903 20.0341C219.728 20.092 219.553 20.1503 219.378 20.2661C219.203 20.3823 219.027 20.4981 218.911 20.6143C218.677 20.7884 218.502 21.0208 218.268 21.1949C218.035 21.4852 217.86 21.7171 217.626 22.0074C217.334 22.4718 217.159 22.9941 216.984 23.4585C216.926 23.5747 216.926 23.6905 216.867 23.8067C216.75 24.0969 216.692 24.3872 216.692 24.6771C216.692 24.8512 216.75 25.0836 216.75 25.2577C216.808 25.3739 216.808 25.548 216.867 25.6642C216.925 25.8383 217.042 26.0124 217.1 26.1865C217.217 26.3606 217.334 26.5347 217.451 26.7088C217.568 26.8829 217.684 26.9991 217.86 27.1731C217.976 27.2893 218.152 27.4051 218.268 27.5213V27.5792C218.093 27.8112 217.976 27.9857 217.801 28.2177C217.684 28.3339 217.626 28.4497 217.568 28.6242C217.451 28.8562 217.335 29.0886 217.218 29.3789C216.984 29.8433 216.868 30.3655 216.692 30.8879C216.576 31.3522 216.459 31.8745 216.342 32.3968C216.225 32.9774 216.167 33.5576 216.109 34.1382C216.051 34.6605 216.051 35.2411 215.992 35.7634C215.934 36.1116 215.817 36.518 215.759 36.8663C215.642 37.2728 215.525 37.6788 215.467 38.1432C215.35 38.5497 215.292 38.9558 215.233 39.3623C215.175 39.5943 215.175 39.7688 215.116 40.0008C215.116 40.117 215.058 40.1749 215.058 40.291C215 40.4651 215 40.6392 215 40.8133C215 41.2198 215.175 41.6259 215.467 41.8579C215.642 42.032 215.817 42.1482 216.051 42.2061C216.401 42.3223 216.751 42.264 217.043 42.0899C217.335 41.9158 217.569 41.6255 217.627 41.3352C217.627 41.219 217.686 41.1032 217.686 40.987V40.6967V40.5805V40.3485V39.8841C217.686 39.5939 217.686 39.3036 217.744 39.0716C217.802 38.6651 217.861 38.2011 217.977 37.7947C218.035 37.5044 218.094 37.2141 218.152 36.9242C218.211 36.6339 218.269 36.2857 218.269 35.9954V34.4282C218.269 33.9638 218.327 33.4994 218.386 33.0933C218.503 32.5128 218.561 31.9904 218.736 31.4682C218.911 30.9459 219.086 30.3653 219.262 29.843C219.378 29.5527 219.612 29.2624 219.787 28.9725C219.845 28.8563 219.962 28.7405 220.02 28.6822C220.137 28.5082 220.254 28.2758 220.312 28.0438C220.37 27.7535 220.37 27.5215 220.312 27.2312C220.312 27.115 220.254 26.9992 220.195 26.883C220.078 26.5927 219.962 26.4186 219.787 26.1866L219.495 25.8963C219.319 25.7222 219.144 25.5481 218.969 25.3158C218.911 25.1996 218.852 25.0838 218.794 24.9676C218.794 24.9097 218.736 24.7935 218.736 24.7356V24.6777C218.794 24.5036 218.794 24.3295 218.853 24.1554C218.911 23.9234 218.97 23.691 219.086 23.5169C219.261 23.2266 219.378 22.9363 219.611 22.6465C219.787 22.4145 219.962 22.24 220.195 22.0659C220.254 22.008 220.37 21.9497 220.429 21.9497C220.779 21.7756 221.188 21.6594 221.596 21.6015C221.654 21.6015 221.713 21.6594 221.713 21.7177C221.888 21.8339 222.238 21.8918 222.413 21.8339C222.647 21.776 222.881 21.6019 222.997 21.4274C223.114 21.1954 223.173 20.963 223.114 20.731C223.056 20.499 222.881 20.3245 222.705 20.1504C222.413 19.9763 222.122 19.8601 221.771 19.8022H221.654C221.304 19.5694 221.012 19.6277 220.72 19.7439L220.72 19.7438Z" fill="white"/>
<path d="M247.574 24.0389C247.399 24.0968 247.224 24.1551 247.049 24.2708C246.816 24.387 246.64 24.5028 246.407 24.6773C246.174 24.8514 245.94 25.0255 245.707 25.1996C245.531 25.3737 245.356 25.4899 245.181 25.664C244.889 25.9543 244.656 26.1863 244.481 26.5345C244.364 26.7665 244.247 26.9989 244.189 27.2308C244.131 27.4628 244.072 27.6952 244.072 27.9272C244.014 28.1592 244.014 28.3337 244.014 28.5657C244.014 28.7977 244.014 28.9722 244.072 29.2042C244.13 29.4362 244.364 29.6107 244.597 29.6107C244.772 29.6107 244.889 29.5528 245.006 29.4366C245.123 29.3204 245.181 29.2046 245.181 29.0301C245.239 28.856 245.239 28.6819 245.298 28.5078C245.356 28.2175 245.415 27.9272 245.531 27.6373C245.59 27.5212 245.707 27.3471 245.765 27.2309C245.882 27.1147 245.998 26.9989 246.115 26.9406C246.348 26.7665 246.64 26.5924 246.874 26.4183C247.166 26.2442 247.399 26.128 247.691 25.9539C247.925 25.8377 248.158 25.7798 248.392 25.7219H248.625C248.917 25.7798 249.209 25.8381 249.501 25.9539C249.617 26.0118 249.793 26.128 249.909 26.1859C250.377 26.4762 250.96 26.3021 251.194 25.8377C251.311 25.6057 251.369 25.3733 251.311 25.083C251.252 24.851 251.077 24.6765 250.902 24.5024C250.435 24.2122 249.968 24.0381 249.442 23.9219C249.092 23.864 248.8 23.8057 248.45 23.8057H248.392C248.158 23.8648 247.866 23.981 247.574 24.0389L247.574 24.0389Z" fill="white"/>
<path d="M246.699 25.2574V27.0566V27.6951C246.699 28.1595 246.699 28.7397 247.225 28.8559H247.517C247.633 28.8559 247.692 28.798 247.809 28.6818C247.867 28.6239 247.867 28.5656 247.925 28.5656C247.925 28.5077 247.984 28.4494 247.984 28.3915C247.984 28.3336 248.042 28.2753 248.042 28.2174C248.042 28.1012 248.1 28.0433 248.1 27.9271C248.158 27.753 248.158 27.5789 248.217 27.3465C248.275 26.8821 248.392 26.476 248.45 26.0116C248.45 25.8954 248.392 25.7796 248.333 25.6635C248.217 25.4894 248.1 25.3732 247.925 25.3153V25.1412C247.925 24.793 247.633 24.5027 247.282 24.5027C246.991 24.6768 246.699 24.9671 246.699 25.2574L246.699 25.2574Z" fill="white"/>
<path d="M250.202 26.9989C250.144 27.2309 250.085 27.4054 250.027 27.6374C249.969 27.7536 249.91 27.8694 249.794 27.9856C249.677 28.1597 249.502 28.3338 249.327 28.45C249.152 28.6241 248.976 28.7403 248.801 28.8565C248.743 28.9144 248.626 28.9727 248.568 29.0306C248.451 29.0885 248.335 29.1468 248.218 29.2047C248.16 29.2626 248.043 29.2626 247.984 29.3209C247.926 29.3788 247.809 29.3788 247.751 29.4371C247.518 29.495 247.401 29.7274 247.459 29.9015C247.459 30.0176 247.576 30.0755 247.634 30.1334C247.751 30.1913 247.809 30.1913 247.926 30.1913C248.101 30.1334 248.335 30.0751 248.51 30.0172C248.685 29.9593 248.86 29.901 248.977 29.8432C249.211 29.727 249.386 29.6112 249.619 29.4367C249.795 29.3205 249.97 29.1464 250.145 28.9723C250.32 28.7982 250.495 28.6241 250.612 28.45C250.67 28.3338 250.729 28.2759 250.787 28.1597C250.845 28.0435 250.904 27.9277 250.962 27.8115C251.02 27.6953 251.02 27.6374 251.079 27.5212C251.137 27.405 251.137 27.2892 251.196 27.173C251.254 26.8827 251.138 26.5924 250.846 26.5345H250.729C250.494 26.6503 250.26 26.7665 250.202 26.9989V26.9989Z" fill="white"/>
<path d="M230.236 24.271C229.944 24.3289 229.711 24.4451 229.419 24.5613C229.186 24.6775 228.952 24.7933 228.777 24.9095C228.31 25.0836 227.843 25.1998 227.376 25.316C226.967 25.4322 226.558 25.548 226.149 25.6063C226.032 25.6642 225.916 25.7225 225.857 25.7804C225.74 25.8966 225.624 26.0707 225.624 26.3027C225.624 26.6509 225.974 27.0573 226.324 26.9991C226.967 26.9412 227.609 26.825 228.193 26.6509C228.602 26.5347 229.068 26.4189 229.419 26.2444C229.652 26.1282 229.886 26.0124 230.119 25.8962C230.353 25.8383 230.528 25.78 230.762 25.7221C231.521 25.6642 232.279 25.6642 233.038 25.7221C233.155 25.7221 233.272 25.78 233.33 25.78C233.389 25.8379 233.505 25.8379 233.564 25.8962C233.681 26.0124 233.739 26.1282 233.856 26.2444C233.914 26.3023 233.973 26.3606 234.031 26.4764C234.089 26.5343 234.206 26.5926 234.264 26.6505C234.322 26.7667 234.322 26.8825 234.381 27.057C234.498 27.8695 234.556 28.74 234.556 29.5525C234.556 29.8428 234.789 30.0748 235.081 30.0748C235.373 30.0748 235.665 29.8428 235.607 29.5525C235.607 28.9141 235.549 28.3335 235.49 27.695C235.49 27.4047 235.432 27.0565 235.373 26.7662C235.373 26.5921 235.315 26.3597 235.256 26.1857C235.198 26.0695 235.198 26.0116 235.139 25.9537C235.081 25.8958 235.022 25.7796 234.964 25.7217L234.847 25.6055C234.789 25.4893 234.73 25.4314 234.672 25.3152C234.555 25.1411 234.439 25.0249 234.322 24.8508C234.205 24.7346 234.089 24.6767 233.972 24.6188C233.914 24.5609 233.855 24.5609 233.855 24.5026C233.68 24.3864 233.505 24.3285 233.271 24.2706C233.154 24.2127 233.038 24.2127 232.862 24.2127C232.687 24.2127 232.512 24.1548 232.337 24.1548C232.103 24.1548 231.87 24.0969 231.636 24.0969H231.344C231.054 24.1548 230.645 24.2127 230.236 24.271L230.236 24.271Z" fill="white"/>
<path d="M229.477 25.8959C229.302 26.0121 229.127 26.1279 229.01 26.2441C228.835 26.3603 228.718 26.5343 228.601 26.7084C228.484 26.8825 228.426 27.1149 228.368 27.289C228.309 27.4631 228.251 27.6955 228.193 27.8696C228.193 28.0437 228.134 28.2178 228.134 28.3919C228.134 28.5081 228.076 28.6239 228.134 28.7401C228.134 28.9142 228.193 29.0304 228.251 29.2045C228.368 29.4365 228.484 29.6689 228.601 29.843C228.718 29.9591 228.835 30.0749 229.01 30.1911C229.711 30.7134 230.528 31.0037 231.404 31.1778H231.579C231.696 31.1778 231.812 31.1199 231.929 31.0616C232.046 31.0037 232.163 30.8296 232.221 30.6551C232.338 30.3069 232.104 29.9587 231.754 29.8425C231.579 29.7847 231.462 29.7264 231.287 29.6685C230.878 29.4944 230.47 29.262 230.12 29.03C230.003 28.9138 229.886 28.8559 229.769 28.7397C229.769 28.6818 229.711 28.6818 229.711 28.6235V28.5656C229.711 28.3915 229.769 28.2753 229.769 28.1012C229.769 27.9271 229.828 27.8109 229.886 27.6368C229.944 27.5789 229.944 27.5206 230.003 27.4627L230.061 27.4048C230.12 27.3469 230.236 27.2886 230.295 27.2307C230.47 27.1145 230.587 26.9987 230.645 26.7663C230.703 26.5922 230.645 26.3599 230.587 26.1858C230.47 26.0117 230.295 25.8955 230.12 25.8376H229.886C229.711 25.7797 229.536 25.8376 229.477 25.8959L229.477 25.8959Z" fill="white"/>
<path d="M230.995 25.3737C230.761 25.6057 230.703 25.8381 230.703 26.1284C230.703 26.4765 230.644 26.8247 230.644 27.2312C230.644 27.6378 230.586 28.1017 230.703 28.5082C230.82 28.8564 231.053 29.0888 231.403 29.2045C231.578 29.2624 231.753 29.2624 231.928 29.2045C232.104 29.1467 232.22 29.0884 232.396 28.9726C232.687 28.7406 232.746 28.3341 232.863 27.9859C232.921 27.7539 232.863 27.5215 232.746 27.3474C232.746 26.9409 232.804 26.5927 232.804 26.1867C232.804 25.8964 232.687 25.6644 232.512 25.432C232.337 25.2579 232.045 25.1417 231.753 25.1417C231.461 25.1417 231.17 25.1996 230.995 25.3737L230.995 25.3737Z" fill="white"/>
<path d="M236.892 34.4862C236.717 34.6024 236.542 34.7182 236.425 34.8344C236.25 34.9506 236.133 35.0664 235.958 35.1826C235.841 35.2988 235.724 35.4729 235.666 35.647C235.666 35.7632 235.607 35.8211 235.607 35.9373C235.607 36.0535 235.607 36.1693 235.666 36.2855C235.783 36.5758 235.958 36.8077 236.133 36.9818C236.308 37.098 236.483 37.2138 236.6 37.33C236.658 37.3879 236.717 37.4462 236.775 37.5041C236.833 37.562 236.833 37.6203 236.892 37.6782C236.95 37.7944 236.95 37.8523 237.009 37.9685C237.067 38.0847 237.126 38.2005 237.184 38.3167C237.242 38.4329 237.359 38.5487 237.417 38.607C237.475 38.7232 237.65 38.7811 237.767 38.839C237.884 38.8969 238.001 38.9552 238.176 38.9552C238.41 38.9552 238.585 38.8973 238.76 38.7232C238.993 38.4912 239.11 38.0268 238.877 37.7365C238.76 37.3883 238.585 36.9819 238.41 36.6336C238.293 36.4595 238.177 36.2854 238.001 36.1692C237.884 36.053 237.768 35.9951 237.651 35.9373C237.593 35.9373 237.593 35.8794 237.534 35.8794C237.592 35.8215 237.651 35.8215 237.651 35.7632C237.826 35.647 237.943 35.5312 238.001 35.2988C238.059 35.1247 238.001 34.8923 237.943 34.7182C237.826 34.4862 237.534 34.37 237.242 34.37C237.125 34.37 237.009 34.4283 236.892 34.4862V34.4862ZM238.76 37.6203C238.76 37.6203 238.76 37.6782 238.818 37.6782C238.818 37.6786 238.76 37.6786 238.76 37.6203Z" fill="white"/>
<path d="M242.263 35.8793C242.263 36.2858 242.613 36.634 243.022 36.634C243.431 36.634 243.781 36.2858 243.781 35.8793C243.781 35.4728 243.431 35.1246 243.022 35.1246C242.613 35.1246 242.263 35.4728 242.263 35.8793Z" fill="white"/>
<path d="M238.176 34.1959C238.059 34.1959 237.884 34.2538 237.767 34.2538C237.709 34.2538 237.65 34.3117 237.534 34.3117C237.417 34.3696 237.242 34.3696 237.125 34.4279C236.892 34.5441 236.658 34.602 236.425 34.7761C236.367 34.834 236.308 34.834 236.25 34.8923C236.133 35.0085 236.075 35.1243 236.016 35.2405C235.958 35.4725 236.016 35.7049 236.075 35.879C236.191 36.0531 236.367 36.1693 236.542 36.2272C236.717 36.2851 237.009 36.2851 237.184 36.1693C237.301 36.1114 237.359 36.0531 237.476 35.9952C237.651 35.9373 237.885 35.879 238.06 35.8211H238.177C238.41 35.879 238.644 35.9952 238.877 36.0531C239.11 36.1693 239.402 36.1693 239.636 36.1693C239.753 36.1693 239.869 36.1693 239.986 36.1114C240.22 36.1114 240.453 36.0535 240.745 36.0535C240.979 36.0535 241.212 35.9956 241.446 35.9956H241.679H241.737C241.854 36.1118 242.029 36.2276 242.146 36.4021C242.38 36.6924 242.847 36.6924 243.139 36.5183C243.314 36.4021 243.489 36.228 243.547 35.996C243.606 35.764 243.547 35.5895 243.489 35.3575C243.372 35.1255 243.197 34.951 243.022 34.7769C242.789 34.5449 242.497 34.3125 242.088 34.2546C241.679 34.1384 241.271 34.2546 240.804 34.3125C240.629 34.3125 240.453 34.3704 240.278 34.3704C240.045 34.3704 239.753 34.4283 239.519 34.4866H239.461C239.111 34.3704 238.819 34.1963 238.469 34.1384C238.468 34.1959 238.351 34.1959 238.176 34.1959C238.235 34.1959 238.235 34.1959 238.176 34.1959H238.176Z" fill="white"/>
<path d="M242.554 36.0535C242.321 36.1697 242.029 36.3438 241.795 36.46C241.678 36.5179 241.62 36.5762 241.503 36.6341C241.386 36.692 241.27 36.8082 241.211 36.8661C241.153 36.924 241.094 37.0402 241.036 37.0981C240.919 37.2143 240.919 37.3884 240.919 37.5625C240.919 37.9106 241.152 38.2009 241.503 38.3171C241.62 38.375 241.795 38.375 241.912 38.3171C241.97 38.3171 242.029 38.2592 242.087 38.2592C242.145 38.2013 242.204 38.2013 242.262 38.143C242.437 38.0268 242.612 37.9689 242.787 37.8527C243.021 37.7365 243.254 37.6207 243.488 37.5045C243.663 37.3883 243.838 37.2143 243.897 36.9823C243.955 36.7503 243.897 36.5179 243.838 36.3438C243.721 36.1697 243.546 35.9956 243.313 35.9373C243.255 35.9373 243.196 35.8794 243.08 35.8794C242.787 35.9373 242.671 35.9373 242.554 36.0535L242.554 36.0535Z" fill="white"/>
<path d="M239.868 38.7814C239.635 38.8393 239.46 39.0134 239.343 39.1879C239.343 39.2458 239.285 39.3041 239.226 39.4199C239.168 39.594 239.168 39.7102 239.226 39.8843C239.285 40.1746 239.343 40.4649 239.518 40.6969C239.577 40.8709 239.752 40.9871 239.81 41.1612C239.868 41.2774 239.985 41.3932 240.102 41.4515C240.219 41.5677 240.336 41.6256 240.452 41.7418C240.569 41.858 240.744 41.9738 240.861 42.09C241.036 42.2062 241.153 42.2641 241.328 42.322C241.445 42.3799 241.562 42.4382 241.737 42.4382C242.263 42.5544 242.788 42.5544 243.314 42.5544C243.606 42.5544 243.898 42.3803 243.956 42.0321C244.014 41.858 243.956 41.6839 243.898 41.5098C243.839 41.3936 243.664 41.2195 243.489 41.2195C243.022 41.1616 242.613 41.0454 242.204 40.8713C242.087 40.8135 241.971 40.7552 241.854 40.6973C241.737 40.5811 241.679 40.5232 241.562 40.407C241.445 40.2908 241.329 40.175 241.212 40.0005C241.154 39.9426 241.095 39.8843 241.095 39.7685C241.037 39.6523 241.037 39.4782 240.978 39.362C240.92 39.13 240.745 38.9555 240.569 38.8397C240.452 38.7818 240.277 38.7235 240.102 38.7235C240.044 38.7814 239.927 38.7814 239.869 38.7814L239.868 38.7814Z" fill="white"/>
<path d="M239.694 38.9553C239.402 39.0132 239.227 39.1873 239.052 39.4776C238.993 39.5354 238.935 39.5937 238.935 39.7095C238.818 39.8257 238.76 39.9415 238.643 39.9998C238.234 40.2901 237.825 40.4642 237.417 40.6962C237.183 40.8124 237.008 40.9282 236.774 41.0444C236.716 41.0444 236.716 41.1023 236.657 41.1023C236.249 41.2185 235.898 41.6246 235.898 42.089C235.898 42.3792 236.015 42.6112 236.19 42.7853C236.366 42.9594 236.658 43.0756 236.891 43.0756C237.183 43.0177 237.533 43.0177 237.825 42.9015C238.117 42.7853 238.35 42.6695 238.642 42.5533C238.993 42.3792 239.284 42.2052 239.635 41.9728C239.868 41.7987 240.16 41.5663 240.394 41.3922C240.627 41.1602 240.803 40.8699 240.978 40.6375C241.328 40.1152 241.095 39.4184 240.569 39.1865C240.394 39.0703 240.219 39.0124 240.044 39.0124C239.869 38.897 239.811 38.9553 239.694 38.9553L239.694 38.9553Z" fill="white"/>
<path d="M238.701 41.5097C238.701 41.7417 238.935 41.9741 239.168 41.9741C239.869 42.0319 240.569 42.0319 241.328 42.0902C241.445 42.0902 241.562 42.0324 241.62 41.9741C241.678 41.9162 241.737 41.8 241.737 41.6838C241.737 41.5676 241.679 41.4518 241.62 41.3935L241.562 41.3356C241.504 41.2777 241.445 41.2777 241.329 41.2777C240.978 41.2198 240.686 41.2198 240.336 41.1615C239.927 41.1036 239.577 41.1036 239.169 41.1036C238.935 41.0453 238.701 41.2773 238.701 41.5097L238.701 41.5097Z" fill="white"/>
<path d="M246.232 25.1996C246.057 25.3737 245.882 25.664 245.94 25.9543C245.998 26.3608 245.998 26.8247 246.057 27.2312C246.057 27.4632 246.115 27.6956 246.174 27.9859C246.174 28.0438 246.174 28.1021 246.232 28.1021C246.29 28.2183 246.29 28.334 246.349 28.3923C246.407 28.5085 246.466 28.6243 246.582 28.7405C246.641 28.7984 246.757 28.8567 246.816 28.9146C246.991 29.0308 247.108 29.0308 247.341 29.0308C247.458 29.0308 247.516 29.0308 247.633 28.9729C247.808 28.915 247.983 28.7988 248.1 28.6826C248.275 28.5085 248.392 28.2762 248.509 28.0442C248.626 27.8122 248.684 27.5798 248.801 27.3478C248.859 27.1737 248.918 26.9996 248.976 26.8834C249.034 26.6514 249.093 26.3611 249.093 26.1287C249.093 25.7222 248.86 25.4323 248.451 25.3162C248.276 25.2583 248.1 25.2583 247.925 25.3162C247.867 25.2583 247.867 25.2 247.808 25.2C247.633 25.0259 247.341 24.9097 247.049 24.9097C246.699 24.8514 246.407 24.9676 246.232 25.1996L246.232 25.1996Z" fill="white"/>
<path d="M231.696 25.0254C231.404 25.1995 231.287 25.606 231.462 25.9541C231.521 26.012 231.521 26.0703 231.579 26.1282C231.638 26.3602 231.696 26.5347 231.754 26.7667C231.754 26.8829 231.813 26.9408 231.813 27.057V27.5214C231.813 27.5793 231.754 27.6376 231.754 27.6376C231.754 27.6955 231.696 27.6955 231.696 27.7538C231.638 27.87 231.696 27.9858 231.696 28.102C231.754 28.334 231.929 28.4502 232.105 28.5085C232.222 28.5664 232.338 28.5664 232.455 28.5085C232.572 28.5085 232.689 28.3923 232.747 28.3344C232.805 28.2765 232.864 28.1603 232.922 28.1024C232.981 27.9862 232.981 27.9283 233.039 27.8121C233.097 27.5218 233.097 27.2898 233.039 26.9995C233.039 26.8254 232.981 26.6513 232.981 26.4189C232.923 26.2448 232.923 26.0707 232.864 25.8384C232.806 25.6064 232.689 25.4319 232.572 25.1999C232.455 24.9679 232.222 24.8517 231.988 24.8517C231.929 24.9675 231.813 24.9675 231.696 25.0254Z" fill="white"/>
<path d="M232.863 25.1996C232.746 25.664 232.571 26.0701 232.454 26.5345C232.337 26.941 232.221 27.347 232.162 27.7536C232.162 27.8698 232.162 27.9277 232.22 28.0439C232.279 28.1018 232.337 28.218 232.454 28.218C232.629 28.2759 232.863 28.1601 232.921 27.9277C233.038 27.5212 233.154 27.1151 233.213 26.7669C233.33 26.3025 233.505 25.8965 233.622 25.4321C233.68 25.2001 233.563 24.9677 233.33 24.9098H233.213C233.097 24.9098 232.921 25.0256 232.863 25.1997V25.1996Z" fill="white"/>
<path d="M221.421 36.9824C221.246 37.0403 221.071 37.1565 220.954 37.3306C220.896 37.5047 220.779 37.6788 220.779 37.9112C220.721 38.0853 220.721 38.3177 220.779 38.5497C220.779 38.7817 220.837 38.9562 220.896 39.1882C220.896 39.3044 220.954 39.4202 221.013 39.5364C221.071 39.5943 221.071 39.6526 221.13 39.7105C221.305 40.0587 221.597 40.291 221.889 40.523C222.064 40.6392 222.239 40.8133 222.414 40.8712C222.589 40.9874 222.764 41.0453 222.998 41.1615C223.29 41.2777 223.582 41.3935 223.874 41.5097C223.99 41.5676 224.107 41.6259 224.224 41.6259C224.516 41.6838 224.749 41.7421 225.041 41.8C225.625 41.9162 226.208 41.9741 226.734 42.032H227.434H227.784H227.96C228.018 42.0899 228.076 42.1482 228.135 42.2061C228.252 42.3802 228.427 42.5543 228.544 42.7284C228.894 43.1348 229.244 43.483 229.594 43.8313C230.353 44.4697 231.17 44.992 232.104 45.3985C232.571 45.6305 233.038 45.805 233.564 45.9791C233.973 46.0953 234.439 46.1532 234.848 46.2694C235.023 46.2694 235.257 46.3273 235.432 46.3273H235.374C235.899 46.3852 236.366 46.4435 236.892 46.5014C237.125 46.5014 237.359 46.5593 237.592 46.6176C237.825 46.6755 238.059 46.6755 238.351 46.6755H239.051C239.46 46.6755 239.869 46.6176 240.219 46.5014C240.744 46.3852 241.27 46.2111 241.795 46.0949C242.087 46.037 242.262 45.6884 242.204 45.3985C242.146 45.1082 241.795 44.9341 241.504 44.992C241.212 45.0499 240.92 45.1082 240.686 45.1661C240.394 45.224 240.044 45.3402 239.752 45.3981C239.402 45.456 239.052 45.456 238.702 45.456H238.176C238.001 45.456 237.884 45.456 237.709 45.3981C237.184 45.3402 236.717 45.2819 236.191 45.224C235.899 45.1661 235.608 45.1661 235.316 45.1078C235.024 45.0499 234.791 44.9916 234.499 44.9337C234.09 44.8175 233.681 44.7017 233.272 44.5272C232.455 44.179 231.696 43.7725 231.054 43.2503C230.295 42.6697 229.711 41.9734 229.127 41.2186C229.069 41.1024 229.011 41.0445 228.894 40.9283C228.777 40.8121 228.661 40.7542 228.485 40.6963C228.427 40.6963 228.368 40.6384 228.31 40.6384C228.077 40.5805 227.843 40.5805 227.61 40.5805C227.26 40.5226 226.851 40.5226 226.5 40.4643C226.325 40.4643 226.208 40.4064 226.033 40.4064C225.8 40.3486 225.508 40.2903 225.274 40.2324C225.157 40.2324 225.099 40.1745 225.041 40.1745C224.924 40.1166 224.808 40.1166 224.691 40.0583C224.34 39.9421 223.99 39.8263 223.64 39.7101C223.348 39.5939 223.115 39.4198 222.823 39.2457C222.706 39.1295 222.531 39.0137 222.414 38.8975C222.356 38.8396 222.356 38.7813 222.297 38.7234C222.297 38.608 222.238 38.4918 222.238 38.3756V38.2015C222.238 38.1436 222.297 38.0274 222.297 37.9695V37.9116C222.355 37.7954 222.355 37.6213 222.297 37.5051C222.238 37.3311 222.122 37.157 221.946 37.0408C221.83 36.9829 221.713 36.9246 221.538 36.9246C221.538 36.9246 221.479 36.9825 221.421 36.9825L221.421 36.9824ZM227.901 41.9162C227.96 41.9162 227.96 41.9162 227.901 41.9162C227.96 41.9162 227.96 41.9162 227.901 41.9162C227.96 41.9162 227.96 41.9162 227.901 41.9162ZM235.607 46.3273H235.49C235.549 46.2694 235.549 46.3273 235.607 46.3273ZM235.023 46.2115H234.965H235.023ZM234.965 46.2115C234.907 46.2115 234.907 46.2115 234.965 46.2115H234.848H234.965Z" fill="white"/>
<path d="M252.362 25.432C252.129 25.4899 251.953 25.6061 251.837 25.8385C251.72 26.0126 251.662 26.3028 251.779 26.4769C251.837 26.7089 252.012 26.8834 252.187 26.9992C252.421 27.1733 252.713 27.3474 252.947 27.5215C253.18 27.6956 253.414 27.8118 253.647 27.9859C254.698 28.7985 255.515 29.9013 256.683 30.656C256.975 30.8301 257.325 30.7722 257.558 30.5398C257.85 30.2495 257.85 29.7852 257.558 29.5532C257.266 29.2629 257.033 28.9726 256.799 28.6827C256.566 28.3924 256.332 28.1604 256.04 27.8701C255.807 27.6381 255.515 27.3479 255.281 27.1155C254.931 26.8252 254.581 26.5349 254.231 26.3029C253.88 26.0709 253.471 25.7806 253.121 25.5482C253.004 25.4903 252.829 25.432 252.712 25.432C252.479 25.3737 252.421 25.432 252.362 25.432L252.362 25.432Z" fill="white"/>
<path d="M226.032 31.3519C225.915 31.3519 225.857 31.4681 225.799 31.526C225.74 31.6418 225.74 31.8159 225.74 31.9321V32.1062V32.2803C225.74 32.3965 225.798 32.5706 225.857 32.6868C225.974 32.9188 226.09 33.1512 226.266 33.3253C226.383 33.4994 226.558 33.6735 226.675 33.7897C226.85 33.9637 227.025 34.1378 227.259 34.3119C227.434 34.486 227.609 34.6022 227.784 34.7763C227.901 34.8925 228.076 35.0083 228.193 35.1245C228.368 35.2407 228.602 35.4148 228.777 35.531C228.952 35.5889 229.069 35.7051 229.244 35.763C229.361 35.8209 229.419 35.8209 229.536 35.8792C229.653 35.9371 229.769 35.9954 229.945 36.0533C230.12 36.1112 230.295 36.1695 230.47 36.2274C230.82 36.2853 231.112 36.1112 231.229 35.8209C231.287 35.6468 231.229 35.4727 231.171 35.3565C231.113 35.2403 230.938 35.1245 230.821 35.0662C230.587 35.0083 230.354 34.8921 230.12 34.8342C229.77 34.6601 229.42 34.5439 229.128 34.3698C228.603 34.1378 228.136 33.7893 227.668 33.4411C227.318 33.1508 226.968 32.8605 226.676 32.5123C226.618 32.4544 226.618 32.3961 226.559 32.3382C226.676 32.3382 226.734 32.2803 226.793 32.222C226.851 32.1058 226.851 31.9317 226.676 31.8155C226.617 31.7576 226.559 31.7576 226.501 31.6993C226.442 31.6414 226.384 31.5831 226.325 31.5831C226.267 31.5831 226.209 31.5252 226.15 31.5252C226.09 31.3519 226.09 31.3519 226.032 31.3519L226.032 31.3519Z" fill="white"/>
<path d="M251.662 31.9905C251.545 31.9905 251.428 31.9905 251.311 32.0484C251.194 32.0484 251.136 32.1063 251.019 32.1646C250.902 32.2225 250.844 32.2808 250.727 32.3387C250.552 32.4549 250.318 32.5128 250.143 32.629C249.91 32.7452 249.676 32.8609 249.443 33.0354C249.326 33.1516 249.151 33.2674 249.034 33.3257C248.976 33.3257 248.976 33.3836 248.917 33.3836C248.859 33.4415 248.742 33.5577 248.684 33.6156C248.567 33.7897 248.509 33.9638 248.509 34.1962C248.509 34.3703 248.567 34.4865 248.626 34.6606C248.684 34.7185 248.743 34.8347 248.801 34.8926C248.918 35.0667 249.151 35.1246 249.385 35.1246C249.618 35.1246 249.794 35.0667 249.969 34.8926C250.086 34.7764 250.202 34.6023 250.202 34.3703C250.377 34.2541 250.552 34.1962 250.727 34.08C250.902 34.0221 251.078 33.9059 251.194 33.848C251.311 33.7901 251.486 33.6739 251.603 33.616C251.72 33.5581 251.837 33.4419 251.895 33.384C252.012 33.2678 252.07 33.1521 252.129 33.0359C252.187 32.9197 252.245 32.8039 252.245 32.6877C252.245 32.5715 252.187 32.4557 252.129 32.3395C252.129 32.1067 251.895 31.9905 251.662 31.9905ZM249.91 33.6739C249.969 33.6739 249.969 33.7318 249.91 33.6739C249.969 33.6739 249.969 33.7318 249.91 33.6739Z" fill="white"/>
<path d="M250.61 37.6205C250.552 37.6205 250.493 37.6784 250.377 37.6784C250.26 37.7363 250.143 37.8525 250.085 37.9687C250.027 38.0849 249.968 38.1428 249.851 38.259C248.976 39.3619 247.983 40.2907 246.933 41.1611C246.465 41.5676 245.998 41.9737 245.531 42.3218C245.414 42.438 245.298 42.4959 245.122 42.6121C245.064 42.6121 245.006 42.67 244.947 42.67C244.83 42.7279 244.772 42.8441 244.655 42.9603C244.539 43.1344 244.539 43.3668 244.597 43.5409C244.655 43.715 244.772 43.8891 244.947 44.0053C245.122 44.1215 245.298 44.1215 245.531 44.0632C246.115 43.947 246.641 43.5409 247.108 43.1927C247.458 42.9607 247.75 42.6704 248.042 42.438C248.626 41.9737 249.151 41.5093 249.676 41.0449C250.027 40.6968 250.319 40.4065 250.611 40.0583C250.786 39.8842 250.903 39.7101 251.078 39.4777C251.253 39.2457 251.428 39.0712 251.545 38.8392C251.662 38.6651 251.662 38.3748 251.603 38.2007C251.545 37.9687 251.428 37.7942 251.194 37.6785C251.077 37.6206 250.902 37.5623 250.785 37.5623C250.785 37.6206 250.668 37.6206 250.61 37.6206L250.61 37.6205Z" fill="white"/>
<path d="M248.625 37.2144C248.508 37.5626 248.742 37.969 249.092 38.0269C249.793 38.201 250.493 38.3751 251.194 38.5492C251.894 38.7233 252.595 38.9557 253.296 39.1298C253.996 39.3618 254.697 39.5363 255.397 39.8262C256.039 40.0582 256.682 40.2906 257.324 40.5808C258.024 40.8711 258.666 41.1614 259.367 41.4513C259.659 41.5675 260.009 41.7416 260.301 41.8578C260.652 42.0319 261.002 42.206 261.352 42.3801C261.585 42.4963 261.936 42.438 262.052 42.206C262.111 42.0898 262.169 41.9157 262.111 41.7995C262.052 41.6833 261.994 41.5675 261.877 41.5092C261.644 41.3351 261.352 41.161 261.118 41.0448C260.885 40.9286 260.651 40.8128 260.418 40.6966C259.892 40.4063 259.367 40.1743 258.9 39.942C258.608 39.7679 258.258 39.6517 257.908 39.4776C257.149 39.1294 256.448 38.8391 255.689 38.5488C254.93 38.2585 254.171 38.0265 253.412 37.7941C252.653 37.5621 251.895 37.3877 251.136 37.1557C250.61 36.9816 250.026 36.8654 249.501 36.7492H249.326C248.975 36.6921 248.742 36.9241 248.625 37.2144H248.625Z" fill="white"/>
<path d="M247.633 39.6522C247.516 40.0587 247.75 40.5227 248.158 40.6389C248.567 40.7551 249.033 40.8709 249.442 41.0454C249.793 41.1616 250.084 41.2774 250.435 41.3935C251.019 41.5676 251.544 41.8 252.127 41.9741C252.595 42.2061 253.12 42.3806 253.587 42.6126C253.82 42.7288 253.996 42.7867 254.229 42.9029C254.462 43.0191 254.696 43.1349 254.93 43.2511C255.397 43.4831 255.805 43.6576 256.272 43.9475C256.739 44.2378 257.265 44.5281 257.732 44.8179C257.849 44.8758 257.966 44.8758 258.083 44.8758C258.258 44.8758 258.492 44.8179 258.608 44.6438C258.725 44.5276 258.841 44.2956 258.841 44.1216C258.841 43.9475 258.783 43.7151 258.608 43.5993C258.141 43.1928 257.616 42.8446 257.09 42.4964C256.857 42.3223 256.623 42.2061 256.39 42.0899C256.215 41.9737 255.981 41.8579 255.748 41.7996C255.514 41.6834 255.281 41.5676 255.047 41.4514C254.814 41.3352 254.638 41.2773 254.405 41.1611C254.055 40.987 253.705 40.8708 253.354 40.6967C253.121 40.5805 252.887 40.4647 252.654 40.4064C252.07 40.2323 251.487 39.9999 250.961 39.8258C250.611 39.7096 250.261 39.5939 249.969 39.4777C249.56 39.3036 249.093 39.1874 248.684 39.0712C248.509 39.0716 248.45 39.0716 248.392 39.0716C248.041 39.0716 247.749 39.304 247.633 39.6522L247.633 39.6522Z" fill="white"/>
<path d="M246.991 41.1028C246.874 41.219 246.758 41.451 246.758 41.6251C246.758 41.7992 246.816 42.0316 246.991 42.1474C248.1 43.0761 249.21 43.9466 250.377 44.8753C250.61 45.0494 250.902 45.2235 251.136 45.4559C251.37 45.63 251.662 45.8041 251.895 45.9782C252.129 46.1523 252.304 46.2685 252.537 46.3847C252.713 46.5009 252.946 46.675 253.121 46.7912C253.53 47.0815 253.997 47.3718 254.406 47.6037C254.756 47.8357 255.223 47.6616 255.456 47.3135C255.69 46.9653 255.515 46.5009 255.164 46.2689C254.464 45.8624 253.822 45.3984 253.18 44.992C252.888 44.8179 252.596 44.6438 252.362 44.4114C252.012 44.1794 251.72 43.947 251.37 43.715C250.261 42.8446 249.151 41.9737 248.101 41.0449C248.043 40.987 247.984 40.987 247.926 40.9287C247.809 40.8708 247.692 40.8125 247.517 40.8125C247.341 40.8708 247.108 40.9287 246.991 41.1028L246.991 41.1028Z" fill="white"/>
<path d="M229.185 37.8526C228.893 37.8526 228.543 37.9105 228.251 37.9688C227.784 38.0267 227.317 38.085 226.85 38.2008C226.032 38.317 225.215 38.4911 224.398 38.6072C224.281 38.6072 224.164 38.6651 224.047 38.6651C223.755 38.723 223.464 38.7813 223.23 38.8392C222.997 38.8971 222.763 38.9554 222.53 39.0133C222.121 39.1295 221.712 39.2453 221.362 39.3615C220.603 39.5935 219.845 39.8838 219.085 40.232C218.677 40.4061 218.268 40.5802 217.918 40.7543C217.509 40.9284 217.101 41.1025 216.692 41.3349C216.458 41.4511 216.458 41.7413 216.517 41.9154C216.575 42.0316 216.692 42.0895 216.75 42.0895C216.867 42.1474 216.983 42.0895 217.1 42.0316C217.626 41.7996 218.151 41.5672 218.677 41.3353C219.144 41.1612 219.552 40.9288 220.019 40.7547C220.545 40.5227 221.129 40.3482 221.654 40.1741C222.004 40.0579 222.354 39.9421 222.704 39.8838C223.23 39.7676 223.755 39.6518 224.222 39.4773C224.514 39.4194 224.864 39.3611 225.156 39.3032C225.448 39.2453 225.74 39.187 226.032 39.1291C226.149 39.1291 226.324 39.0712 226.441 39.0712C227.2 38.955 227.959 38.7809 228.776 38.6647C229.126 38.6068 229.476 38.6068 229.768 38.5485C230.118 38.5485 230.469 38.5485 230.819 38.6064C231.052 38.6643 231.286 38.7226 231.519 38.7805C231.694 38.8384 231.869 38.7226 231.928 38.5485C231.986 38.3744 231.87 38.2003 231.695 38.142C231.403 38.0841 231.111 38.0258 230.877 37.968C230.585 37.9101 230.235 37.9101 229.943 37.9101C229.769 37.7943 229.477 37.7943 229.185 37.8526L229.185 37.8526Z" fill="white"/>
</svg>
