<svg width="20" height="20" viewBox="0 0 20 20" fill="none" xmlns="http://www.w3.org/2000/svg">
<g clip-path="url(#clip0_1376_814)">
<path d="M4.93453 6.31726H0.992497C0.817543 6.31726 0.675781 6.45909 0.675781 6.63398V19.298C0.675781 19.473 0.817543 19.6148 0.992497 19.6148H4.93453C5.10948 19.6148 5.25124 19.473 5.25124 19.298V6.63398C5.25124 6.45909 5.10948 6.31726 4.93453 6.31726Z" fill="white"/>
<path d="M2.96453 0.0216064C1.53019 0.0216064 0.363281 1.18725 0.363281 2.62C0.363281 4.0534 1.53019 5.21948 2.96453 5.21948C4.39773 5.21948 5.56369 4.05333 5.56369 2.62C5.56375 1.18725 4.39773 0.0216064 2.96453 0.0216064Z" fill="white"/>
<path d="M14.961 6.00244C13.3778 6.00244 12.2074 6.68306 11.4975 7.45642V6.63391C11.4975 6.45902 11.3557 6.31719 11.1808 6.31719H7.40558C7.23063 6.31719 7.08887 6.45902 7.08887 6.63391V19.298C7.08887 19.4729 7.23063 19.6147 7.40558 19.6147H11.339C11.514 19.6147 11.6557 19.4729 11.6557 19.298V13.0322C11.6557 10.9208 12.2292 10.0982 13.7011 10.0982C15.304 10.0982 15.4314 11.4169 15.4314 13.1408V19.298C15.4314 19.473 15.5732 19.6147 15.7481 19.6147H19.683C19.858 19.6147 19.9997 19.473 19.9997 19.298V12.3516C19.9997 9.21197 19.4011 6.00244 14.961 6.00244Z" fill="white"/>
</g>
<defs>
<clipPath id="clip0_1376_814">
<rect width="19.6364" height="19.6364" fill="white" transform="translate(0.363281)"/>
</clipPath>
</defs>
</svg>
