<svg width="41" height="41" viewBox="0 0 41 41" fill="none" xmlns="http://www.w3.org/2000/svg">
<path d="M35.3056 0.00790528C35.0081 0.0563254 34.6609 0.105085 34.3633 0.153506C33.8179 0.250686 33.2724 0.396288 32.7764 0.68749C32.5782 0.78467 32.4291 0.930271 32.2309 1.02745C31.9829 1.22147 31.7349 1.36741 31.5367 1.56143C31.3385 1.70704 31.1894 1.9014 31.0407 2.047C30.8919 2.1926 30.6934 2.38696 30.5447 2.58098C30.3959 2.72658 30.2472 2.92094 30.1479 3.11496C29.9497 3.35774 29.8006 3.60053 29.6024 3.84296C29.3544 4.18292 29.1064 4.52254 28.8588 4.86252C28.5613 5.29933 28.2638 5.6877 28.0158 6.17325C27.6191 6.80441 27.3216 7.53244 27.0242 8.21203C26.8754 8.55199 26.7761 8.89161 26.6769 9.2316C26.5776 9.6684 26.5281 10.0568 26.6274 10.4936C26.6769 10.7364 26.8754 10.9304 27.0736 11.0276C27.2718 11.1732 27.5696 11.1732 27.7678 11.1248C28.0158 11.0764 28.214 10.9308 28.3133 10.688C28.4126 10.5424 28.462 10.348 28.4126 10.154V10.1056V9.86279C28.462 9.66876 28.5118 9.4744 28.6108 9.23163C28.71 9.03761 28.7595 8.79483 28.8588 8.60048C29.1068 8.11491 29.3548 7.58091 29.6025 7.14412C29.7512 6.90134 29.8999 6.70732 30.0487 6.46454C30.2469 6.12458 30.4949 5.83339 30.7429 5.54215C31.0403 5.20219 31.2883 4.81415 31.5858 4.47422C31.784 4.2802 31.9826 4.03742 32.1808 3.84306C32.379 3.64904 32.5775 3.5031 32.7757 3.30908C33.123 3.0663 33.4699 2.82352 33.8666 2.62951C33.9659 2.58109 34.1146 2.53233 34.2634 2.53233C34.4121 2.48391 34.5114 2.48391 34.6601 2.48391C34.8583 2.48391 35.0569 2.43549 35.2551 2.43549H35.6023C35.6518 2.67827 35.7016 2.92105 35.7511 3.16348C35.8005 3.3575 35.8503 3.55186 35.8503 3.74589C35.8998 4.08585 35.9496 4.37704 35.9496 4.71665C35.9496 5.20221 35.9991 5.68741 35.9991 6.1242C35.9991 6.99779 35.9991 7.87173 35.8998 8.74532V8.8425C35.8503 9.18246 35.7511 9.57049 35.7016 9.91043C35.6023 10.2988 35.5034 10.7356 35.4041 11.124C35.2059 11.9007 35.0074 12.6775 34.7099 13.4055C34.5117 13.7939 34.3626 14.2307 34.2139 14.619C34.2139 14.6675 34.1644 14.7162 34.1644 14.8131C34.115 14.9587 34.115 15.153 34.115 15.2986C34.1645 15.6386 34.1644 15.7354 34.3132 15.9782C34.4125 16.1722 34.6107 16.3666 34.8092 16.5606C35.0074 16.7062 35.1565 16.8518 35.3547 16.949C35.5034 17.0946 35.6522 17.1918 35.7514 17.3374C35.8009 17.3858 35.8507 17.483 35.8507 17.5314C36.1482 18.2594 36.3467 19.0361 36.5944 19.8129C36.7431 20.2013 36.7926 20.6381 36.8424 21.0264C36.8918 21.4632 36.9911 21.8516 37.0904 22.2885C37.1897 22.6284 37.2391 23.0164 37.2886 23.3564C37.338 23.6476 37.3879 23.9388 37.4373 24.1816C37.4868 24.5699 37.4868 24.9583 37.5366 25.3467C37.5861 25.7835 37.5861 26.2203 37.6359 26.6574C37.6359 27.0458 37.6853 27.4342 37.6359 27.871C37.5864 28.3078 37.5366 28.7445 37.4871 29.1817V29.3757C37.3384 30.2009 37.0904 30.9776 36.8922 31.8028C36.7929 32.1912 36.694 32.5796 36.5947 32.9679C36.446 33.3563 36.2972 33.7931 36.1485 34.1815C36.1485 34.2299 36.1485 34.2299 36.099 34.2787C35.851 34.8127 35.5536 35.3466 35.2066 35.7834C34.7106 36.3174 34.1651 36.803 33.6695 37.3369C33.3721 37.5797 33.124 37.8709 32.876 38.1137C32.7273 38.2593 32.628 38.4049 32.4793 38.5021L32.1818 38.7933C32.0826 38.8904 31.9836 38.9873 31.9338 39.0845V39.1329C31.7851 39.4241 31.7356 39.7153 31.8345 40.0065C31.9338 40.3949 32.2808 40.6861 32.6775 40.8317C33.1735 40.9773 33.719 40.7832 34.0164 40.3948C34.0659 40.2977 34.1652 40.2492 34.2146 40.1521C34.3634 40.0065 34.4626 39.8609 34.6114 39.7153C34.9089 39.3753 35.2063 39.0841 35.5038 38.7929C35.8511 38.4529 36.1485 38.1617 36.4954 37.8705C36.6442 37.7249 36.7929 37.5793 36.8922 37.3849C37.0904 37.1421 37.2395 36.9481 37.3882 36.7053C37.6362 36.317 37.8344 35.8318 38.0329 35.3946C38.1322 35.2006 38.1817 35.0062 38.281 34.8122C38.3304 34.6182 38.4297 34.4238 38.4792 34.2298C38.6279 33.8414 38.7766 33.453 38.8759 33.0162C38.9752 32.6279 39.0741 32.1911 39.1734 31.8027C39.2726 31.4143 39.3716 30.9775 39.5206 30.5891C39.6199 30.1523 39.7188 29.7155 39.7687 29.3271C39.8679 28.8415 39.9174 28.3564 39.9669 27.8224C40.0661 26.9972 40.0661 26.1232 40.0163 25.2981C39.9669 24.8613 39.9669 24.4245 39.917 23.9874C39.8676 23.5018 39.7683 22.9678 39.669 22.4826C39.5698 22.0943 39.4708 21.6575 39.421 21.2691C39.3716 20.8323 39.2723 20.3955 39.2228 19.9583C39.1734 19.5215 39.0246 19.1332 38.8756 18.7448C38.7268 18.3564 38.6275 17.9196 38.4788 17.5312C38.3301 16.9972 38.1315 16.4633 37.8341 16.0265C37.6359 15.7837 37.4868 15.5409 37.2391 15.3469C37.1897 15.2985 37.0904 15.2013 36.9911 15.1529V15.1045C37.1893 14.6677 37.3879 14.2793 37.5366 13.8425C37.6853 13.4057 37.8341 12.9689 37.9333 12.5317C38.0326 12.0949 38.1813 11.7066 38.2806 11.2697C38.3799 10.8329 38.4788 10.3961 38.5781 10.0077C38.7763 9.03695 38.8756 8.06619 38.8756 7.095C38.8756 6.17261 38.8756 5.2503 38.7763 4.27954C38.7268 3.74556 38.6275 3.16315 38.5283 2.62919C38.4788 2.38641 38.429 2.19238 38.3795 1.94961C38.2803 1.60965 38.1315 1.27004 37.9333 0.97885C37.8341 0.88167 37.7351 0.736069 37.6359 0.638889C37.5366 0.541709 37.3879 0.444867 37.2886 0.347687C37.0406 0.153665 36.6936 0.104906 36.3962 0.104906H36.3467C35.7521 -0.0406952 35.5041 0.00772573 35.3056 0.00772573L35.3056 0.00790528ZM37.6362 35.5409C37.6362 35.4925 37.6857 35.4925 37.6857 35.4437C37.686 35.4922 37.686 35.4922 37.6362 35.5409ZM37.7355 35.3466C37.7355 35.395 37.7355 35.395 37.686 35.4437C37.686 35.3953 37.7355 35.3466 37.7355 35.2981V35.3466V35.3466Z" fill="black"/>
<path d="M24.9411 7.58058C24.7923 7.58058 24.6436 7.629 24.4451 7.629C24.1971 7.67742 23.949 7.7746 23.7014 7.87178C23.5032 7.9202 23.3047 8.01738 23.1559 8.11456C22.7097 8.30858 22.2635 8.45452 21.817 8.55136C21.3708 8.69696 20.8747 8.79414 20.4285 8.84256C20.0318 8.89132 19.6354 8.89132 19.2386 8.89132C18.8418 8.8429 18.4451 8.6973 18.0484 8.60012C17.7011 8.50294 17.3047 8.4061 16.9575 8.35734C16.5607 8.30892 16.164 8.26016 15.7673 8.21174C15.42 8.16332 15.1226 8.11456 14.7756 8.06614C14.4284 8.01772 14.0814 8.01772 13.784 8.11456C13.4865 8.21174 13.288 8.30858 13.0898 8.50294C12.7923 8.79414 12.5938 9.23094 12.5938 9.61933C12.5938 9.91053 12.693 10.1533 12.7919 10.4445C12.8912 10.5417 12.9407 10.6385 13.04 10.7845C13.2382 10.9785 13.4862 11.1244 13.7342 11.1728C13.9324 11.2213 14.1309 11.27 14.3291 11.27H14.5273H14.8746C15.1226 11.27 15.3706 11.27 15.6681 11.3184C16.0648 11.3184 16.4117 11.3669 16.8085 11.4156C17.3045 11.5128 17.85 11.5612 18.3456 11.6097C18.4449 11.6097 18.5936 11.6581 18.6929 11.6581C18.9409 11.7065 19.1889 11.6581 19.4366 11.6581C19.6846 11.6581 19.9326 11.6097 20.1802 11.6097C21.1719 11.5125 22.1141 11.1728 23.0563 10.8817C23.4531 10.7845 23.8 10.5905 24.1472 10.4449C24.4447 10.3477 24.7422 10.2021 25.0396 10.1536H25.0891C25.1386 10.1536 25.1386 10.1536 25.1884 10.2021C25.2378 10.2505 25.3371 10.2505 25.3866 10.2992C25.7338 10.4449 26.0313 10.6392 26.3288 10.8332C26.5768 11.0273 26.9736 11.0273 27.2711 10.9788C27.5685 10.8817 27.866 10.6876 28.0147 10.3964C28.1635 10.1052 28.2129 9.76527 28.1635 9.47404C28.0642 9.13408 27.866 8.94005 27.5685 8.74604C27.2212 8.50326 26.8249 8.26048 26.4281 8.06647C26.1801 7.96929 25.9819 7.82368 25.7339 7.77526C25.6844 7.77526 25.6346 7.77526 25.5852 7.72684C25.4364 7.67842 25.2379 7.67842 25.0891 7.67842C25.0898 7.58057 24.9906 7.58057 24.9411 7.58057L24.9411 7.58058Z" fill="black"/>
<path d="M4.16411 0.97914C3.86664 1.3191 3.6681 1.70714 3.51937 2.14424C3.4201 2.4842 3.32117 2.7754 3.2219 3.115C3.17244 3.40621 3.12263 3.64899 3.07316 3.94018C2.87496 4.91094 2.77569 5.8817 2.67642 6.90126C2.62696 7.33807 2.62696 7.77485 2.57715 8.212V8.84315C2.57715 9.27995 2.62661 9.71674 2.67642 10.1539C2.72588 10.5907 2.82516 11.0275 2.92443 11.4646C2.97389 11.6586 3.07316 11.853 3.12263 12.0958C3.17209 12.3385 3.2219 12.5326 3.27136 12.7753C3.32083 12.9209 3.32083 13.0665 3.32083 13.2121C3.32083 13.1637 3.32083 13.0665 3.27136 13.0181C3.32083 13.5037 3.32083 13.9889 3.32083 14.4745C3.32083 14.7657 3.32083 15.0085 3.27136 15.2997C3.27136 15.5424 3.27136 15.8336 3.37064 16.0764C3.56884 16.7076 4.21358 17.2415 4.90776 17.1928C5.10596 17.1928 5.3045 17.1444 5.45324 17.0472C5.70125 16.9016 5.89945 16.6588 5.94925 16.416C6.04853 15.9792 5.89979 15.5425 5.55251 15.2997C5.50305 15.2025 5.50305 15.0569 5.50305 14.9597C5.45359 14.6197 5.45359 14.2317 5.40378 13.8918C5.35431 13.3578 5.3045 12.8722 5.15577 12.3382C5.10631 12.0955 5.0565 11.9014 4.95757 11.6587C4.90811 11.4646 4.80883 11.2703 4.75937 11.0275C4.6601 10.6391 4.61063 10.2507 4.51136 9.81395C4.51136 9.66834 4.4619 9.52274 4.51136 9.37714V9.13436C4.51136 8.98876 4.51136 8.84316 4.56082 8.69756C4.61029 8.40635 4.61029 8.16357 4.6601 7.87238C4.75937 7.1928 4.8583 6.46483 5.00738 5.78523C5.05684 5.44527 5.15611 5.05724 5.25538 4.7173C5.30485 4.52328 5.35466 4.32892 5.40412 4.1349C5.45358 3.94087 5.50339 3.69809 5.60232 3.50374C5.75106 3.55216 5.89979 3.64934 6.04853 3.69776C6.44527 3.89179 6.84201 4.13457 7.18895 4.42576C7.58569 4.76572 7.98243 5.10534 8.37914 5.39652C8.87515 5.7849 9.3708 6.17328 9.91626 6.51291C10.2137 6.75569 10.5112 7.04689 10.8087 7.33809C11.0567 7.67805 11.2549 8.06608 11.5029 8.40602C11.7011 8.74598 11.8996 9.08559 12.0978 9.37678C12.296 9.66796 12.4946 10.0079 12.6928 10.2992C12.9408 10.6391 13.139 11.0272 13.387 11.3671C13.7342 11.8527 14.1306 12.2895 14.4779 12.7747C14.6266 12.9687 14.9739 13.0659 15.2216 13.0659C15.519 13.0659 15.767 12.9687 15.9652 12.7747C16.1634 12.5806 16.2627 12.3379 16.2627 12.0467C16.2627 11.9495 16.2627 11.8526 16.2132 11.7555C16.1638 11.5614 16.0645 11.4155 15.9652 11.3187C15.8165 11.1246 15.6678 10.9303 15.519 10.7363C15.023 10.0567 14.5768 9.3287 14.1306 8.6003C13.9324 8.26034 13.7338 7.8723 13.5356 7.53237C13.4364 7.33835 13.3374 7.09556 13.2382 6.90121C13.0894 6.56125 12.9407 6.22164 12.6927 5.88165C12.2959 5.29925 11.8497 4.81372 11.3537 4.32812C11.0064 3.98816 10.709 3.69697 10.3621 3.40573C10.0148 3.11453 9.71732 2.77457 9.41981 2.48334C9.02307 2.09496 8.57687 1.75534 8.13063 1.46377C8.0317 1.31885 7.8335 1.22167 7.63496 1.12449C7.33748 0.978889 7.04001 0.833288 6.74256 0.736107C6.54401 0.639265 6.34581 0.590507 6.14761 0.493665C5.94942 0.445244 5.70141 0.396484 5.50287 0.396484H5.45341C4.95739 0.396484 4.51116 0.590506 4.16396 0.978889L4.16411 0.97914Z" fill="black"/>
<path d="M4.85881 16.5122C4.6108 16.5606 4.4126 16.6578 4.1646 16.755C4.01587 16.8034 3.86713 16.8522 3.71839 16.949C3.56966 17.0462 3.42092 17.143 3.32165 17.2402C3.12345 17.3858 2.97437 17.5802 2.77617 17.7258C2.57797 17.9686 2.42889 18.1626 2.23069 18.4054C1.98268 18.7937 1.83395 19.2305 1.68521 19.6189C1.63575 19.7161 1.63575 19.8129 1.58594 19.9101C1.48667 20.1529 1.4372 20.3957 1.4372 20.6381C1.4372 20.7837 1.48667 20.9781 1.48667 21.1237C1.53613 21.2209 1.53613 21.3665 1.58594 21.4636C1.6354 21.6092 1.73467 21.7548 1.78414 21.9004C1.88341 22.046 1.98234 22.1916 2.08161 22.3372C2.18088 22.4828 2.27981 22.58 2.42889 22.7256C2.52816 22.8228 2.6769 22.9196 2.77617 23.0168V23.0652C2.62743 23.2593 2.52816 23.4052 2.37943 23.5992C2.28015 23.6964 2.23069 23.7932 2.18123 23.9392C2.08195 24.1332 1.98303 24.3276 1.88375 24.5703C1.68556 24.9587 1.58628 25.3955 1.43755 25.8324C1.33828 26.2207 1.23935 26.6575 1.14008 27.0944C1.0408 27.5799 0.99134 28.0651 0.941877 28.5507C0.892414 28.9875 0.892414 29.4731 0.842604 29.9099C0.793142 30.2011 0.693869 30.5411 0.644405 30.8323C0.545133 31.1723 0.446205 31.5119 0.396397 31.9002C0.297124 32.2402 0.247661 32.5798 0.198198 32.9198C0.148735 33.1138 0.148735 33.2598 0.0989252 33.4538C0.0989252 33.551 0.0494629 33.5994 0.0494629 33.6966C3.3251e-07 33.8422 0 33.9878 0 34.1334C0 34.4733 0.148736 34.8129 0.396744 35.007C0.54548 35.1526 0.694216 35.2497 0.892761 35.2982C1.19023 35.3953 1.4877 35.3466 1.7357 35.201C1.98371 35.0554 2.18191 34.8126 2.23172 34.5698C2.23172 34.4726 2.28118 34.3758 2.28118 34.2786V34.0358V33.9387V33.7446V33.3563C2.28118 33.1135 2.28118 32.8707 2.33064 32.6767C2.38011 32.3367 2.42992 31.9487 2.52884 31.6088C2.57831 31.366 2.62812 31.1232 2.67758 30.8808C2.72704 30.638 2.77685 30.3468 2.77685 30.104V28.7933C2.77685 28.4049 2.82631 28.0165 2.87612 27.6769C2.9754 27.1913 3.02486 26.7545 3.1736 26.3177C3.32233 25.8809 3.47107 25.3953 3.6198 24.9585C3.71907 24.7157 3.91727 24.4729 4.06601 24.2305C4.11547 24.1333 4.21475 24.0365 4.26421 23.9877C4.36348 23.8421 4.46241 23.6478 4.51222 23.4537C4.56168 23.211 4.56168 23.0169 4.51222 22.7742C4.51222 22.677 4.46276 22.5802 4.41295 22.483C4.31367 22.2402 4.21475 22.0946 4.06566 21.9006L3.81766 21.6578C3.66892 21.5122 3.52019 21.3666 3.37145 21.1722C3.32199 21.075 3.27218 20.9782 3.22271 20.881C3.22271 20.8326 3.17325 20.7354 3.17325 20.687V20.6386C3.22271 20.493 3.22271 20.3474 3.27252 20.2018C3.32199 20.0078 3.3718 19.8134 3.47072 19.6678C3.61946 19.425 3.71873 19.1822 3.91693 18.9398C4.06567 18.7458 4.2144 18.5998 4.41295 18.4542C4.46241 18.4058 4.56168 18.3571 4.61115 18.3571C4.90862 18.2115 5.25589 18.1143 5.60281 18.0659C5.65227 18.0659 5.70208 18.1143 5.70208 18.163C5.85081 18.2602 6.14829 18.3086 6.29702 18.2602C6.49522 18.2118 6.69377 18.0662 6.79304 17.9202C6.89231 17.7262 6.94177 17.5319 6.89231 17.3378C6.84285 17.1438 6.69411 16.9979 6.54503 16.8523C6.29702 16.7067 6.04901 16.6095 5.75155 16.5611H5.65228C5.35481 16.3664 5.1068 16.4151 4.8588 16.5123L4.85881 16.5122Z" fill="black"/>
<path d="M27.6691 20.1042C27.5203 20.1526 27.3716 20.2014 27.2228 20.2982C27.0246 20.3954 26.8756 20.4923 26.6774 20.6382C26.4792 20.7838 26.2806 20.9294 26.0824 21.075C25.9337 21.2206 25.785 21.3178 25.6362 21.4634C25.3882 21.7062 25.19 21.9002 25.0413 22.1914C24.942 22.3854 24.8431 22.5798 24.7933 22.7738C24.7438 22.9678 24.694 23.1622 24.694 23.3562C24.6445 23.5502 24.6445 23.6961 24.6445 23.8902C24.6445 24.0842 24.6445 24.2301 24.694 24.4241C24.7435 24.6182 24.942 24.7641 25.1402 24.7641C25.2889 24.7641 25.3882 24.7157 25.4875 24.6185C25.5868 24.5213 25.6362 24.4245 25.6362 24.2785C25.6857 24.1329 25.6857 23.9873 25.7355 23.8417C25.785 23.599 25.8348 23.3562 25.9337 23.1137C25.9832 23.0166 26.0824 22.871 26.1319 22.7738C26.2312 22.6766 26.3301 22.5798 26.4294 22.531C26.6276 22.3854 26.8756 22.2398 27.0741 22.0942C27.3221 21.9486 27.5203 21.8514 27.7683 21.7058C27.9665 21.6086 28.1651 21.5602 28.3633 21.5118H28.5615C28.8095 21.5602 29.0575 21.609 29.3051 21.7058C29.4044 21.7542 29.5531 21.8514 29.6524 21.8998C30.0491 22.1426 30.5448 21.997 30.7433 21.6086C30.8426 21.4146 30.8921 21.2203 30.8426 20.9775C30.7931 20.7835 30.6444 20.6375 30.4953 20.4919C30.0986 20.2491 29.7018 20.1035 29.2556 20.0064C28.9582 19.9579 28.7102 19.9092 28.4127 19.9092H28.3632C28.1647 19.9586 27.917 20.0558 27.669 20.1042L27.6691 20.1042Z" fill="black"/>
<path d="M26.9248 21.1234V22.6281V23.1621C26.9248 23.5505 26.9248 24.0357 27.371 24.1329H27.619C27.7183 24.1329 27.7678 24.0845 27.867 23.9873C27.9165 23.9389 27.9165 23.8901 27.9663 23.8901C27.9663 23.8417 28.0158 23.7929 28.0158 23.7445C28.0158 23.6961 28.0652 23.6473 28.0652 23.5989C28.0652 23.5017 28.1147 23.4533 28.1147 23.3561C28.1642 23.2105 28.1642 23.0649 28.214 22.8706C28.2634 22.4822 28.3627 22.1426 28.4122 21.7542C28.4122 21.657 28.3627 21.5602 28.3129 21.463C28.2136 21.3174 28.1147 21.2202 27.9656 21.1718V21.0262C27.9656 20.735 27.7176 20.4922 27.4201 20.4922C27.1728 20.6378 26.9248 20.8806 26.9248 21.1233L26.9248 21.1234Z" fill="black"/>
<path d="M29.9002 22.5803C29.8507 22.7743 29.8009 22.9202 29.7514 23.1143C29.702 23.2114 29.6521 23.3083 29.5532 23.4055C29.4539 23.5511 29.3052 23.6967 29.1565 23.7938C29.0077 23.9394 28.859 24.0366 28.7103 24.1338C28.6608 24.1822 28.5615 24.231 28.5121 24.2794C28.4128 24.3278 28.3139 24.3766 28.2146 24.425C28.1651 24.4734 28.0659 24.4734 28.0164 24.5222C27.9669 24.5706 27.8677 24.5706 27.8182 24.6194C27.62 24.6678 27.5207 24.8622 27.5702 25.0078C27.5702 25.1049 27.6695 25.1534 27.7189 25.2018C27.8182 25.2502 27.8677 25.2502 27.9669 25.2502C28.1157 25.2018 28.3142 25.153 28.463 25.1046C28.6117 25.0562 28.7604 25.0074 28.8597 24.959C29.0579 24.8618 29.207 24.765 29.4052 24.619C29.5539 24.5219 29.7026 24.3763 29.8514 24.2307C30.0001 24.085 30.1489 23.9394 30.2481 23.7938C30.2976 23.6967 30.3474 23.6482 30.3969 23.5511C30.4463 23.4539 30.4961 23.357 30.5456 23.2599C30.5951 23.1627 30.5951 23.1143 30.6449 23.0171C30.6943 22.9199 30.6943 22.8231 30.7441 22.7259C30.7936 22.4831 30.6947 22.2403 30.4467 22.1919H30.3474C30.1482 22.2887 29.9496 22.3859 29.9002 22.5803V22.5803Z" fill="black"/>
<path d="M12.941 20.2989C12.693 20.3474 12.4948 20.4445 12.2468 20.5417C12.0486 20.6389 11.8501 20.7357 11.7013 20.8329C11.3046 20.9785 10.9079 21.0757 10.5112 21.1729C10.1639 21.2701 9.81695 21.3669 9.46965 21.4157C9.37037 21.4641 9.27145 21.5128 9.22164 21.5613C9.12236 21.6584 9.02344 21.804 9.02344 21.9981C9.02344 22.2893 9.32091 22.6292 9.61838 22.5805C10.1639 22.5321 10.7093 22.4349 11.2054 22.2893C11.5526 22.1921 11.949 22.0952 12.2469 21.9493C12.4451 21.8521 12.6436 21.7553 12.8418 21.6581C13.04 21.6097 13.1891 21.5609 13.3873 21.5125C14.032 21.4641 14.6765 21.4641 15.3212 21.5125C15.4205 21.5125 15.5194 21.5609 15.5692 21.5609C15.6187 21.6093 15.718 21.6093 15.7674 21.6581C15.8667 21.7553 15.9162 21.8521 16.0154 21.9493C16.0649 21.9977 16.1147 22.0465 16.1642 22.1433C16.2136 22.1918 16.3129 22.2405 16.3624 22.2889C16.4118 22.3861 16.4118 22.483 16.4616 22.6289C16.5609 23.3085 16.6104 24.0364 16.6104 24.716C16.6104 24.9588 16.8086 25.1528 17.0566 25.1528C17.3046 25.1528 17.5526 24.9588 17.5028 24.716C17.5028 24.1821 17.4533 23.6965 17.4035 23.1625C17.4035 22.9197 17.354 22.6285 17.3042 22.3858C17.3042 22.2402 17.2548 22.0458 17.205 21.9002C17.1555 21.803 17.1555 21.7546 17.1057 21.7062C17.0562 21.6578 17.0064 21.5606 16.957 21.5121L16.8577 21.415C16.8082 21.3178 16.7584 21.2694 16.7089 21.1722C16.6097 21.0266 16.5107 20.9294 16.4115 20.7838C16.3122 20.6866 16.2133 20.6382 16.114 20.5898C16.0645 20.5414 16.0147 20.5414 16.0147 20.4926C15.866 20.3954 15.7173 20.347 15.5187 20.2986C15.4194 20.2502 15.3205 20.2502 15.1714 20.2502C15.0227 20.2502 14.874 20.2017 14.7252 20.2017C14.527 20.2017 14.3285 20.1533 14.1303 20.1533H13.8823C13.6353 20.2017 13.288 20.2502 12.9411 20.2989L12.941 20.2989Z" fill="black"/>
<path d="M12.2962 21.6577C12.1475 21.7549 11.9987 21.8517 11.8995 21.9489C11.7507 22.0461 11.6514 22.1917 11.5522 22.3373C11.4529 22.4829 11.4034 22.6772 11.354 22.8228C11.3045 22.9684 11.2547 23.1628 11.2052 23.3084C11.2052 23.454 11.1558 23.5996 11.1558 23.7452C11.1558 23.8424 11.1063 23.9392 11.1558 24.0364C11.1558 24.182 11.2052 24.2792 11.255 24.4248C11.3543 24.6188 11.4532 24.8132 11.5525 24.9588C11.6518 25.0559 11.7507 25.1528 11.8998 25.25C12.4947 25.6868 13.189 25.9295 13.933 26.0751H14.0817C14.181 26.0751 14.2799 26.0267 14.3792 25.9779C14.4785 25.9295 14.5774 25.7839 14.6272 25.638C14.7265 25.3468 14.5279 25.0556 14.2304 24.9584C14.0817 24.91 13.9824 24.8612 13.8337 24.8128C13.4864 24.6672 13.1395 24.4729 12.842 24.2788C12.7428 24.1816 12.6438 24.1332 12.5446 24.036C12.5446 23.9876 12.4951 23.9876 12.4951 23.9389V23.8904C12.4951 23.7448 12.5446 23.6477 12.5446 23.5021C12.5446 23.3565 12.594 23.2593 12.6438 23.1137C12.6933 23.0653 12.6933 23.0165 12.7431 22.9681L12.7926 22.9197C12.842 22.8712 12.9413 22.8225 12.9908 22.7741C13.1395 22.6769 13.2388 22.58 13.2882 22.3857C13.3377 22.2401 13.2882 22.0457 13.2388 21.9001C13.1395 21.7545 12.9908 21.6573 12.842 21.6089H12.6438C12.4948 21.5605 12.346 21.6089 12.2962 21.6577L12.2962 21.6577Z" fill="black"/>
<path d="M13.5862 21.2204C13.388 21.4144 13.3382 21.6087 13.3382 21.8515C13.3382 22.1427 13.2887 22.4339 13.2887 22.7739C13.2887 23.1139 13.2393 23.5019 13.3382 23.8418C13.4375 24.133 13.6357 24.3274 13.9331 24.4242C14.0819 24.4727 14.2306 24.4727 14.3793 24.4242C14.5281 24.3758 14.6274 24.3271 14.7761 24.2302C15.0241 24.0362 15.0736 23.6962 15.1728 23.405C15.2223 23.211 15.1728 23.0167 15.0736 22.8711C15.0736 22.5311 15.123 22.2399 15.123 21.9003C15.123 21.6575 15.0238 21.4635 14.875 21.2691C14.7263 21.1235 14.4783 21.0264 14.2303 21.0264C13.9826 21.0264 13.7349 21.0748 13.5862 21.2204L13.5862 21.2204Z" fill="black"/>
<path d="M18.5939 28.8423C18.4452 28.9395 18.2964 29.0363 18.1971 29.1335C18.0484 29.2307 17.9491 29.3275 17.8004 29.4247C17.7011 29.5219 17.6022 29.6675 17.5524 29.8131C17.5524 29.9103 17.5029 29.9587 17.5029 30.0559C17.5029 30.1531 17.5029 30.2499 17.5524 30.3471C17.6517 30.5899 17.8004 30.7839 17.9491 30.9295C18.0979 31.0267 18.2466 31.1235 18.3459 31.2207C18.3953 31.2691 18.4452 31.3179 18.4946 31.3663C18.5441 31.4147 18.5441 31.4635 18.5939 31.5119C18.6434 31.6091 18.6434 31.6575 18.6932 31.7547C18.7426 31.8519 18.7924 31.9487 18.8419 32.0459C18.8914 32.1431 18.9906 32.2399 19.0401 32.2887C19.0896 32.3858 19.2383 32.4343 19.3376 32.4827C19.4368 32.5311 19.5358 32.5799 19.6849 32.5799C19.8831 32.5799 20.0321 32.5314 20.1809 32.3858C20.3791 32.1918 20.4783 31.8034 20.2801 31.5607C20.1809 31.2695 20.0321 30.9295 19.8834 30.6383C19.7841 30.4927 19.6852 30.3471 19.5361 30.2499C19.4368 30.1527 19.3379 30.1043 19.2386 30.0559C19.1892 30.0559 19.1892 30.0074 19.1394 30.0074C19.1888 29.959 19.2386 29.959 19.2386 29.9103C19.3874 29.8131 19.4867 29.7162 19.5361 29.5219C19.5856 29.3763 19.5361 29.1819 19.4867 29.0363C19.3874 28.8423 19.1394 28.7451 18.8917 28.7451C18.7921 28.7451 18.6932 28.7939 18.5939 28.8423V28.8423ZM20.1805 31.4634C20.1805 31.4634 20.1805 31.5119 20.23 31.5119C20.2303 31.5122 20.1805 31.5122 20.1805 31.4634Z" fill="black"/>
<path d="M23.1562 30.0066C23.1562 30.3466 23.4537 30.6378 23.801 30.6378C24.1483 30.6378 24.4457 30.3466 24.4457 30.0066C24.4457 29.6667 24.1483 29.3755 23.801 29.3755C23.4537 29.3755 23.1562 29.6667 23.1562 30.0066Z" fill="black"/>
<path d="M19.6852 28.5998C19.5859 28.5998 19.4372 28.6483 19.3379 28.6483C19.2885 28.6483 19.2387 28.6967 19.1397 28.6967C19.0405 28.7451 18.8917 28.7451 18.7924 28.7939C18.5942 28.891 18.3957 28.9395 18.1975 29.0851C18.148 29.1335 18.0982 29.1335 18.0488 29.1822C17.9495 29.2794 17.9 29.3763 17.8506 29.4734C17.8011 29.6675 17.8506 29.8618 17.9 30.0074C17.9993 30.153 18.148 30.2502 18.2968 30.2986C18.4455 30.3471 18.6935 30.3471 18.8423 30.2502C18.9415 30.2018 18.991 30.153 19.0903 30.1046C19.239 30.0562 19.4375 30.0074 19.5863 29.959H19.6855C19.8837 30.0074 20.0823 30.1046 20.2805 30.153C20.4787 30.2502 20.7267 30.2502 20.9252 30.2502C21.0245 30.2502 21.1234 30.2502 21.2227 30.2018C21.4209 30.2018 21.6195 30.1534 21.8675 30.1534C22.0657 30.1534 22.2642 30.105 22.4624 30.105H22.6606H22.7101C22.8093 30.2021 22.9581 30.299 23.0573 30.4449C23.2555 30.6877 23.6523 30.6877 23.9003 30.5421C24.049 30.4449 24.1978 30.2993 24.2476 30.1053C24.297 29.9113 24.2476 29.7653 24.1981 29.5713C24.0988 29.3773 23.9501 29.2313 23.8014 29.0857C23.6032 28.8917 23.3551 28.6974 23.0079 28.6489C22.6606 28.5518 22.3137 28.6489 21.917 28.6974C21.7682 28.6974 21.6195 28.7458 21.4707 28.7458C21.2725 28.7458 21.0245 28.7942 20.826 28.843H20.7765C20.4791 28.7458 20.2311 28.6002 19.9336 28.5518C19.9332 28.5998 19.834 28.5998 19.6852 28.5998C19.7347 28.5998 19.7347 28.5998 19.6852 28.5998H19.6852Z" fill="black"/>
<path d="M23.4044 30.1529C23.2062 30.2501 22.9582 30.3957 22.7597 30.4929C22.6604 30.5413 22.6109 30.5901 22.5116 30.6385C22.4124 30.6869 22.3134 30.7841 22.2636 30.8325C22.2142 30.8809 22.1644 30.9781 22.1149 31.0265C22.0156 31.1237 22.0156 31.2693 22.0156 31.4149C22.0156 31.7061 22.2138 31.9489 22.5116 32.0461C22.6109 32.0945 22.7596 32.0945 22.8589 32.0461C22.9084 32.0461 22.9582 31.9977 23.0077 31.9977C23.0571 31.9492 23.1069 31.9492 23.1564 31.9005C23.3051 31.8033 23.4539 31.7549 23.6026 31.6577C23.8008 31.5605 23.9993 31.4637 24.1975 31.3665C24.3463 31.2693 24.495 31.1237 24.5448 30.9297C24.5943 30.7357 24.5448 30.5413 24.4954 30.3957C24.3961 30.2501 24.2474 30.1045 24.0492 30.0557C23.9997 30.0557 23.9499 30.0073 23.851 30.0073C23.6026 30.0557 23.5037 30.0557 23.4044 30.1529L23.4044 30.1529Z" fill="black"/>
<path d="M21.1236 32.4342C20.9254 32.4826 20.7763 32.6282 20.6774 32.7741C20.6774 32.8226 20.6279 32.8713 20.5781 32.9682C20.5286 33.1138 20.5286 33.2109 20.5781 33.3565C20.6276 33.5993 20.6774 33.8421 20.8261 34.0361C20.8756 34.1817 21.0243 34.2789 21.0741 34.4245C21.1236 34.5217 21.2229 34.6185 21.3221 34.6673C21.4214 34.7645 21.5203 34.8129 21.6196 34.9101C21.7189 35.0072 21.8676 35.1041 21.9669 35.2013C22.1156 35.2984 22.2149 35.3469 22.3636 35.3953C22.4629 35.4437 22.5618 35.4925 22.7109 35.4925C23.1571 35.5896 23.6033 35.5896 24.0499 35.5896C24.2979 35.5896 24.5459 35.444 24.5953 35.1528C24.6448 35.0072 24.5953 34.8616 24.5459 34.716C24.4964 34.6189 24.3477 34.4733 24.1986 34.4733C23.8019 34.4248 23.4549 34.3277 23.1077 34.1821C23.0084 34.1336 22.9095 34.0849 22.8102 34.0365C22.7109 33.9393 22.6615 33.8909 22.5622 33.7937C22.4629 33.6965 22.364 33.5996 22.2647 33.4537C22.2153 33.4053 22.1655 33.3565 22.1655 33.2597C22.116 33.1625 22.116 33.0169 22.0662 32.9197C22.0167 32.7257 21.868 32.5798 21.7189 32.4829C21.6196 32.4345 21.4709 32.3857 21.3222 32.3857C21.2723 32.4342 21.1734 32.4342 21.1236 32.4342L21.1236 32.4342Z" fill="black"/>
<path d="M20.9747 32.5797C20.7267 32.6281 20.578 32.7737 20.4293 33.0165C20.3798 33.0649 20.33 33.1137 20.33 33.2105C20.2307 33.3077 20.1813 33.4045 20.082 33.4533C19.7347 33.6961 19.3878 33.8417 19.0405 34.0357C18.8423 34.1329 18.6932 34.2297 18.495 34.3269C18.4455 34.3269 18.4455 34.3753 18.3957 34.3753C18.0484 34.4725 17.751 34.8121 17.751 35.2005C17.751 35.4433 17.8502 35.6373 17.999 35.7829C18.1477 35.9285 18.3957 36.0257 18.5939 36.0257C18.8419 35.9773 19.1394 35.9773 19.3874 35.8801C19.6354 35.7829 19.8336 35.6861 20.0816 35.5889C20.3791 35.4433 20.6271 35.2977 20.9246 35.1033C21.1228 34.9577 21.3708 34.7634 21.5693 34.6178C21.7675 34.4237 21.9166 34.181 22.0653 33.9866C22.3628 33.5498 22.1646 32.967 21.718 32.773C21.5693 32.6759 21.4206 32.6274 21.2718 32.6274C21.1234 32.5309 21.074 32.5797 20.9747 32.5797L20.9747 32.5797Z" fill="black"/>
<path d="M20.1318 34.7159C20.1318 34.9099 20.33 35.1043 20.5286 35.1043C21.1235 35.1527 21.7188 35.1527 22.3632 35.2014C22.4625 35.2014 22.5614 35.153 22.6112 35.1043C22.6607 35.0558 22.7105 34.9587 22.7105 34.8615C22.7105 34.7643 22.661 34.6675 22.6112 34.6187L22.5618 34.5703C22.5123 34.5219 22.4625 34.5219 22.3636 34.5219C22.0661 34.4734 21.8181 34.4734 21.5206 34.4247C21.1734 34.3763 20.8759 34.3763 20.529 34.3763C20.3304 34.3275 20.1319 34.5215 20.1319 34.7159L20.1318 34.7159Z" fill="black"/>
<path d="M26.5292 21.0757C26.3804 21.2213 26.2317 21.4641 26.2812 21.7069C26.3306 22.0469 26.3306 22.4349 26.3804 22.7748C26.3804 22.9688 26.4299 23.1632 26.4797 23.406C26.4797 23.4544 26.4797 23.5032 26.5292 23.5032C26.5786 23.6003 26.5786 23.6972 26.6285 23.7459C26.6779 23.8431 26.7277 23.94 26.8266 24.0371C26.8761 24.0856 26.9754 24.1343 27.0248 24.1827C27.1736 24.2799 27.2729 24.2799 27.4711 24.2799C27.5703 24.2799 27.6198 24.2799 27.7191 24.2315C27.8678 24.1831 28.0165 24.0859 28.1158 23.9887C28.2645 23.8431 28.3638 23.6488 28.4631 23.4547C28.5624 23.2607 28.6118 23.0664 28.7111 22.8723C28.7606 22.7267 28.8104 22.5811 28.8598 22.484C28.9093 22.2899 28.9591 22.0471 28.9591 21.8528C28.9591 21.5128 28.7609 21.2704 28.4136 21.1732C28.2649 21.1248 28.1162 21.1248 27.9674 21.1732C27.918 21.1248 27.918 21.076 27.8681 21.076C27.7194 20.9304 27.4714 20.8333 27.2234 20.8333C26.9256 20.7845 26.6779 20.8817 26.5292 21.0757L26.5292 21.0757Z" fill="black"/>
<path d="M14.1814 20.9294C13.9334 21.075 13.8341 21.415 13.9832 21.7062C14.0326 21.7546 14.0326 21.8034 14.0824 21.8518C14.1319 22.0458 14.1817 22.1918 14.2312 22.3858C14.2312 22.483 14.2806 22.5314 14.2806 22.6286V23.0169C14.2806 23.0654 14.2312 23.1141 14.2312 23.1141C14.2312 23.1625 14.1817 23.1625 14.1817 23.2113C14.1323 23.3085 14.1817 23.4053 14.1817 23.5025C14.2312 23.6965 14.3799 23.7937 14.529 23.8425C14.6283 23.8909 14.7272 23.8909 14.8265 23.8425C14.9257 23.8425 15.0247 23.7453 15.0745 23.6969C15.1239 23.6484 15.1737 23.5513 15.2232 23.5028C15.2727 23.4057 15.2727 23.3572 15.3225 23.2601C15.3719 23.0173 15.3719 22.8233 15.3225 22.5805C15.3225 22.4349 15.273 22.2893 15.273 22.0949C15.2236 21.9493 15.2236 21.8037 15.1737 21.6094C15.1243 21.4153 15.025 21.2694 14.9257 21.0754C14.8265 20.8814 14.6283 20.7842 14.4297 20.7842C14.3796 20.881 14.2806 20.881 14.1814 20.9294V20.9294Z" fill="black"/>
<path d="M15.1734 21.0749C15.0741 21.4633 14.9254 21.8029 14.8261 22.1913C14.7269 22.5313 14.6279 22.8709 14.5781 23.2109C14.5781 23.308 14.5781 23.3565 14.6276 23.4537C14.6771 23.5021 14.7269 23.5993 14.8258 23.5993C14.9745 23.6477 15.1731 23.5508 15.2225 23.3565C15.3218 23.0165 15.4207 22.6769 15.4705 22.3857C15.5698 21.9973 15.7185 21.6577 15.8178 21.2693C15.8673 21.0753 15.7684 20.8809 15.5698 20.8325H15.4705C15.372 20.8325 15.2229 20.9294 15.1734 21.075V21.0749Z" fill="black"/>
<path d="M5.45367 30.9298C5.30493 30.9782 5.1562 31.0754 5.05693 31.221C5.00746 31.3666 4.90819 31.5122 4.90819 31.7065C4.85873 31.8521 4.85873 32.0465 4.90819 32.2405C4.90819 32.4345 4.95765 32.5805 5.00746 32.7745C5.00746 32.8717 5.05693 32.9685 5.10674 33.0657C5.1562 33.1141 5.1562 33.1629 5.20601 33.2113C5.35474 33.5025 5.60275 33.6969 5.85075 33.8909C5.99949 33.988 6.14822 34.1337 6.29696 34.1821C6.44569 34.2793 6.59443 34.3277 6.79297 34.4249C7.04098 34.522 7.28899 34.6189 7.53665 34.7161C7.63592 34.7645 7.73484 34.8132 7.83412 34.8132C8.08213 34.8617 8.28032 34.9104 8.52832 34.9588C9.02434 35.056 9.51998 35.1044 9.96618 35.1529H10.5611H10.8586H11.0073C11.0568 35.2013 11.1066 35.25 11.1561 35.2985C11.2553 35.4441 11.4041 35.5897 11.5033 35.7353C11.8008 36.0752 12.0983 36.3664 12.3957 36.6577C13.0405 37.1916 13.7347 37.6284 14.5278 37.9684C14.9246 38.1624 15.3213 38.3083 15.7675 38.4539C16.1148 38.5511 16.5112 38.5995 16.8584 38.6967C17.0072 38.6967 17.2057 38.7451 17.3545 38.7451H17.305C17.7512 38.7936 18.1479 38.8423 18.5942 38.8907C18.7924 38.8907 18.9909 38.9392 19.1891 38.9879C19.3873 39.0363 19.5859 39.0364 19.8339 39.0364H20.4288C20.7761 39.0364 21.123 38.9879 21.4205 38.8907C21.8667 38.7936 22.3129 38.648 22.7594 38.5508C23.0074 38.5024 23.1562 38.2108 23.1067 37.9684C23.0572 37.7256 22.7594 37.58 22.5118 37.6284C22.2637 37.6768 22.0157 37.7256 21.8175 37.774C21.5695 37.8224 21.2721 37.9196 21.0241 37.968C20.7266 38.0165 20.4291 38.0165 20.1317 38.0165H19.6855C19.5367 38.0165 19.4375 38.0165 19.2887 37.968C18.8425 37.9196 18.4458 37.8709 17.9995 37.8224C17.7515 37.774 17.5035 37.774 17.2559 37.7253C17.0079 37.6768 16.8097 37.6281 16.5617 37.5797C16.2144 37.4825 15.8675 37.3856 15.5201 37.2397C14.8259 36.9485 14.1812 36.6085 13.6357 36.1718C12.991 35.6862 12.4953 35.1038 11.9993 34.4726C11.9499 34.3754 11.9001 34.327 11.8011 34.2298C11.7019 34.1327 11.603 34.0842 11.4539 34.0358C11.4044 34.0358 11.3546 33.9874 11.3051 33.9874C11.1069 33.939 10.9084 33.939 10.7102 33.939C10.4127 33.8905 10.0654 33.8905 9.76794 33.8418C9.6192 33.8418 9.51993 33.7934 9.3712 33.7934C9.173 33.7449 8.92499 33.6962 8.72645 33.6478C8.62718 33.6478 8.57772 33.5993 8.52825 33.5993C8.42898 33.5509 8.33005 33.5509 8.23078 33.5022C7.93331 33.405 7.63584 33.3081 7.33838 33.211C7.09038 33.1138 6.89218 32.9682 6.64418 32.8226C6.54491 32.7254 6.39617 32.6286 6.2969 32.5314C6.24744 32.483 6.24743 32.4342 6.19762 32.3858C6.19728 32.2893 6.14782 32.1921 6.14782 32.0949V31.9493C6.14782 31.9009 6.19728 31.8037 6.19728 31.7553V31.7069C6.24674 31.6097 6.24674 31.4641 6.19728 31.3669C6.14782 31.2213 6.04854 31.0757 5.89981 30.9785C5.80053 30.9301 5.70161 30.8813 5.55253 30.8813C5.55253 30.8813 5.50306 30.9298 5.4536 30.9298L5.45367 30.9298ZM10.9579 35.056C11.0073 35.056 11.0073 35.056 10.9579 35.056C11.0073 35.056 11.0073 35.056 10.9579 35.056C11.0073 35.056 11.0073 35.056 10.9579 35.056ZM17.5032 38.7452H17.404C17.4538 38.6967 17.4538 38.7452 17.5032 38.7452ZM17.0072 38.6483H16.9578H17.0072ZM16.9578 38.6483C16.9083 38.6483 16.9083 38.6483 16.9578 38.6483H16.8585H16.9578Z" fill="black"/>
<path d="M31.7354 21.2697C31.5372 21.3181 31.3881 21.4153 31.2892 21.6096C31.1899 21.7552 31.1404 21.998 31.2397 22.1436C31.2892 22.3376 31.4379 22.4836 31.587 22.5804C31.7852 22.726 32.0332 22.8716 32.2317 23.0172C32.4299 23.1628 32.6285 23.26 32.8267 23.4056C33.7191 24.0852 34.4137 25.0075 35.4053 25.6387C35.6533 25.7843 35.9508 25.7359 36.149 25.5415C36.397 25.2988 36.397 24.9104 36.149 24.7164C35.901 24.4736 35.7028 24.2308 35.5043 23.9884C35.3061 23.7456 35.1075 23.5516 34.8595 23.3088C34.6613 23.1148 34.4133 22.872 34.2148 22.6776C33.9173 22.4348 33.6198 22.1921 33.3224 21.9981C33.0249 21.804 32.6776 21.5613 32.3801 21.3669C32.2808 21.3185 32.1321 21.2697 32.0328 21.2697C31.8346 21.221 31.7852 21.2697 31.7354 21.2697L31.7354 21.2697Z" fill="black"/>
<path d="M9.37105 26.2212C9.27178 26.2212 9.22232 26.3184 9.17286 26.3668C9.12305 26.4636 9.12305 26.6092 9.12305 26.7064V26.852V26.9976C9.12305 27.0948 9.17251 27.2404 9.22232 27.3376C9.32159 27.5316 9.42052 27.726 9.5696 27.8716C9.66887 28.0172 9.81761 28.1628 9.91688 28.2599C10.0656 28.4055 10.2144 28.5511 10.4129 28.6967C10.5616 28.8423 10.7104 28.9395 10.8591 29.0851C10.9584 29.1823 11.1071 29.2791 11.2064 29.3763C11.3551 29.4735 11.5537 29.6191 11.7024 29.7163C11.8511 29.7647 11.9504 29.8619 12.0991 29.9103C12.1984 29.9587 12.2479 29.9587 12.3472 30.0075C12.4464 30.0559 12.5454 30.1047 12.6944 30.1531C12.8432 30.2015 12.9919 30.2503 13.1406 30.2987C13.4381 30.3471 13.6861 30.2015 13.7854 29.9587C13.8348 29.8131 13.7854 29.6675 13.7359 29.5704C13.6865 29.4732 13.5377 29.3763 13.4385 29.3276C13.2403 29.2792 13.0417 29.182 12.8435 29.1336C12.546 28.9879 12.2486 28.8908 12.0006 28.7452C11.5544 28.5511 11.1576 28.2596 10.7609 27.9684C10.4634 27.7256 10.1659 27.4828 9.91793 27.1917C9.86847 27.1432 9.86847 27.0945 9.81866 27.0461C9.91794 27.0461 9.9674 26.9976 10.0169 26.9489C10.0663 26.8517 10.0663 26.7061 9.91759 26.6089C9.86813 26.5605 9.81832 26.5605 9.76885 26.5117C9.71939 26.4633 9.66958 26.4146 9.62012 26.4146C9.57065 26.4146 9.52085 26.3661 9.47138 26.3661C9.42054 26.2212 9.42054 26.2212 9.37107 26.2212L9.37105 26.2212Z" fill="black"/>
<path d="M31.1398 26.7549C31.0406 26.7549 30.9416 26.7549 30.8424 26.8033C30.7431 26.8033 30.6936 26.8517 30.5944 26.9005C30.4951 26.9489 30.4456 26.9977 30.3464 27.0461C30.1976 27.1433 29.9991 27.1917 29.8503 27.2889C29.6521 27.386 29.4536 27.4829 29.2554 27.6288C29.1561 27.726 29.0074 27.8229 28.9081 27.8716C28.8587 27.8716 28.8587 27.92 28.8088 27.92C28.7594 27.9685 28.6601 28.0656 28.6107 28.1141C28.5114 28.2597 28.4619 28.4053 28.4619 28.5996C28.4619 28.7452 28.5114 28.8424 28.5612 28.988C28.6106 29.0364 28.6605 29.1336 28.7099 29.182C28.8092 29.3276 29.0074 29.376 29.2059 29.376C29.4041 29.376 29.5532 29.3276 29.702 29.182C29.8012 29.0848 29.9002 28.9392 29.9002 28.7452C30.0489 28.648 30.1976 28.5996 30.3464 28.5024C30.4951 28.454 30.6438 28.3568 30.7431 28.3084C30.8424 28.26 30.9911 28.1628 31.0904 28.1144C31.1897 28.066 31.2886 27.9688 31.3384 27.9204C31.4377 27.8232 31.4871 27.7263 31.5366 27.6292C31.5861 27.532 31.6359 27.4351 31.6359 27.338C31.6359 27.2408 31.5864 27.1439 31.5366 27.0468C31.5366 26.8521 31.338 26.7549 31.1398 26.7549V26.7549ZM29.6521 28.1628C29.7019 28.1628 29.7019 28.2112 29.6521 28.1628C29.7019 28.2112 29.7019 28.1628 29.6521 28.1628Z" fill="black"/>
<path d="M30.2476 31.4633C30.1982 31.4633 30.1483 31.5117 30.0494 31.5117C29.9501 31.5601 29.8512 31.6573 29.8014 31.7545C29.7519 31.8517 29.7021 31.9001 29.6032 31.9973C28.8595 32.9197 28.0162 33.6964 27.1238 34.4244C26.7271 34.7643 26.3304 35.104 25.9337 35.3951C25.8344 35.4923 25.7355 35.5407 25.5864 35.6379C25.5369 35.6379 25.4871 35.6863 25.4376 35.6863C25.3384 35.7348 25.2889 35.8319 25.1896 35.9291C25.0904 36.0747 25.0904 36.2691 25.1402 36.4147C25.1896 36.5603 25.2889 36.7059 25.4376 36.8031C25.5864 36.9003 25.7351 36.9003 25.9337 36.8515C26.4297 36.7543 26.8759 36.4147 27.2726 36.1235C27.5701 35.9295 27.8181 35.6867 28.0661 35.4923C28.5621 35.104 29.0083 34.7156 29.4545 34.3272C29.752 34.036 30 33.7933 30.248 33.5021C30.3967 33.3565 30.496 33.2109 30.6448 33.0165C30.7935 32.8225 30.9422 32.6765 31.0415 32.4825C31.1408 32.3369 31.1408 32.0941 31.091 31.9485C31.0415 31.7545 30.9422 31.6086 30.7437 31.5117C30.6444 31.4633 30.4957 31.4146 30.3964 31.4146C30.3964 31.4633 30.2971 31.4633 30.2477 31.4633L30.2476 31.4633Z" fill="black"/>
<path d="M28.562 31.1239C28.4627 31.4151 28.6612 31.755 28.9587 31.8034C29.5536 31.949 30.1489 32.0946 30.7439 32.2402C31.3388 32.3858 31.934 32.5802 32.529 32.7258C33.1239 32.9198 33.7192 33.0658 34.3141 33.3082C34.8596 33.5022 35.4051 33.6966 35.9505 33.9394C36.5455 34.1821 37.091 34.4249 37.6863 34.6674C37.9343 34.7645 38.2317 34.9101 38.4797 35.0073C38.7772 35.1529 39.0747 35.2985 39.3721 35.4441C39.5703 35.5413 39.8682 35.4925 39.9671 35.2985C40.0166 35.2013 40.0664 35.0557 40.0166 34.9586C39.9671 34.8614 39.9173 34.7645 39.8184 34.7158C39.6202 34.5702 39.3721 34.4246 39.1736 34.3274C38.9754 34.2302 38.7769 34.1334 38.5787 34.0362C38.1325 33.7934 37.6863 33.5994 37.2895 33.405C37.0415 33.2594 36.744 33.1623 36.4465 33.0167C35.8018 32.7255 35.2069 32.4827 34.5621 32.2399C33.9174 31.9971 33.2729 31.8031 32.6282 31.6088C31.9835 31.4147 31.339 31.2688 30.6943 31.0748C30.2481 30.9292 29.7521 30.832 29.3059 30.7348H29.1571C28.8593 30.6871 28.6611 30.8811 28.5618 31.1239H28.562Z" fill="black"/>
<path d="M27.7189 33.1627C27.6196 33.5027 27.8182 33.8907 28.1651 33.9879C28.5124 34.0851 28.9088 34.1819 29.256 34.3278C29.5535 34.425 29.8015 34.5219 30.099 34.619C30.595 34.7646 31.0412 34.959 31.5368 35.1046C31.9336 35.2986 32.3798 35.4446 32.7765 35.6386C32.9747 35.7358 33.1238 35.7842 33.322 35.8814C33.5202 35.9786 33.7188 36.0754 33.917 36.1726C34.3137 36.3666 34.6606 36.5125 35.0574 36.755C35.4541 36.9978 35.9003 37.2405 36.2971 37.483C36.3967 37.5314 36.496 37.5314 36.5952 37.5314C36.744 37.5314 36.9425 37.483 37.0414 37.3374C37.1407 37.2402 37.2396 37.0462 37.2396 36.9006C37.2396 36.755 37.1902 36.5606 37.0414 36.4638C36.6447 36.1238 36.1985 35.8326 35.7523 35.5414C35.5541 35.3958 35.3555 35.2986 35.1573 35.2014C35.0086 35.1042 34.81 35.0074 34.6118 34.9586C34.4136 34.8615 34.2151 34.7646 34.0169 34.6674C33.8187 34.5702 33.6696 34.5218 33.4714 34.4246C33.1739 34.279 32.8765 34.1819 32.579 34.0363C32.3808 33.9391 32.1823 33.8422 31.9841 33.7935C31.4881 33.6479 30.9924 33.4535 30.5462 33.3079C30.2487 33.2107 29.9513 33.1139 29.7033 33.0167C29.356 32.8711 28.9596 32.7739 28.6123 32.6768C28.4629 32.6771 28.4131 32.6771 28.3636 32.6771C28.0662 32.6771 27.8182 32.8715 27.7189 33.1627L27.7189 33.1627Z" fill="black"/>
<path d="M27.1738 34.3756C27.0745 34.4728 26.9756 34.6668 26.9756 34.8124C26.9756 34.958 27.025 35.1524 27.1738 35.2492C28.116 36.026 29.0582 36.7539 30.0499 37.5307C30.2481 37.6763 30.4961 37.8219 30.6946 38.0163C30.8928 38.1619 31.1408 38.3075 31.3393 38.4531C31.5375 38.5987 31.6866 38.6958 31.8848 38.793C32.0336 38.8902 32.2321 39.0358 32.3808 39.133C32.7281 39.3758 33.1245 39.6186 33.4718 39.8126C33.7692 40.0066 34.166 39.861 34.3642 39.5698C34.5624 39.2786 34.4136 38.8902 34.1162 38.6962C33.5212 38.3562 32.9757 37.9682 32.4303 37.6283C32.1823 37.4827 31.9343 37.3371 31.7361 37.1427C31.4386 36.9487 31.1906 36.7543 30.8931 36.5603C29.9509 35.8323 29.0087 35.1039 28.1163 34.3272C28.0668 34.2788 28.017 34.2788 27.9676 34.23C27.8683 34.1816 27.7694 34.1328 27.6203 34.1328C27.4712 34.1816 27.273 34.23 27.1737 34.3756L27.1738 34.3756Z" fill="black"/>
<path d="M12.0487 31.6576C11.8006 31.6576 11.5032 31.706 11.2552 31.7548C10.8584 31.8032 10.4617 31.8519 10.065 31.9488C9.37078 32.046 8.67654 32.1916 7.98231 32.2887C7.88304 32.2887 7.78411 32.3372 7.68484 32.3372C7.43683 32.3856 7.18882 32.4343 6.99063 32.4828C6.79243 32.5312 6.59389 32.5799 6.39569 32.6284C6.04841 32.7255 5.70148 32.8224 5.40403 32.9196C4.75929 33.1136 4.11485 33.3564 3.47012 33.6476C3.12284 33.7932 2.77591 33.9388 2.47846 34.0844C2.13118 34.23 1.78425 34.3756 1.43695 34.5699C1.23875 34.6671 1.23875 34.9099 1.28821 35.0555C1.33767 35.1527 1.43694 35.2011 1.48641 35.2011C1.58568 35.2495 1.68461 35.2011 1.78388 35.1527C2.23009 34.9586 2.67628 34.7643 3.12283 34.5703C3.51957 34.4247 3.8665 34.2303 4.26325 34.0847C4.70946 33.8907 5.2055 33.7447 5.6517 33.5991C5.94917 33.502 6.24665 33.4051 6.5441 33.3564C6.99031 33.2592 7.4365 33.1623 7.83329 33.0164C8.08129 32.968 8.37876 32.9192 8.62676 32.8708C8.87477 32.8224 9.12278 32.7736 9.37043 32.7252C9.46971 32.7252 9.61844 32.6768 9.71772 32.6768C10.3625 32.5796 11.0069 32.434 11.701 32.3368C11.9985 32.2884 12.296 32.2884 12.544 32.2396C12.8415 32.2396 13.1389 32.2396 13.4364 32.288C13.6346 32.3365 13.8331 32.3852 14.0313 32.4337C14.1801 32.4821 14.3288 32.3852 14.3786 32.2396C14.4281 32.094 14.3291 31.9484 14.1804 31.8997C13.9324 31.8512 13.6844 31.8025 13.4862 31.7541C13.2382 31.7056 12.9407 31.7056 12.6927 31.7056C12.5447 31.6088 12.2967 31.6088 12.0487 31.6576L12.0487 31.6576Z" fill="black"/>
</svg>
